<svg width="356" height="1034" viewBox="0 0 356 1034" fill="none" xmlns="http://www.w3.org/2000/svg">
<rect width="356" height="1034" fill="#F5F5F5"/>
<g clip-path="url(#clip0_0_1)">
<rect width="356" height="1034" fill="white"/>
<path d="M561.352 1045.91H-215.948C-232.948 1045.91 -246.648 1032.21 -246.648 1015.21V-414.492C-246.648 -431.492 -232.948 -445.192 -215.948 -445.192H561.352C578.352 -445.192 592.052 -431.492 592.052 -414.492V1015.21C592.052 1032.21 578.352 1045.91 561.352 1045.91Z" fill="url(#paint0_linear_0_1)"/>
<path d="M354.516 346.367C275.616 346.367 211.616 282.367 211.616 203.467C211.616 124.567 275.616 60.5668 354.516 60.5668C433.416 60.5668 497.416 124.567 497.416 203.467C497.416 282.367 433.416 346.367 354.516 346.367ZM354.516 40.0668C264.316 40.0668 191.116 113.167 191.116 203.467C191.116 293.767 264.216 366.867 354.516 366.867C444.716 366.867 517.916 293.767 517.916 203.467C517.916 113.167 444.716 40.0668 354.516 40.0668Z" fill="url(#paint1_linear_0_1)"/>
<path d="M354.516 60.5668C275.616 60.5668 211.616 124.567 211.616 203.467C211.616 282.367 275.616 346.367 354.516 346.367C433.416 346.367 497.416 282.367 497.416 203.467C497.416 124.567 433.416 60.5668 354.516 60.5668Z" fill="url(#paint2_linear_0_1)"/>
<path d="M-15.0839 374.967C-15.0839 374.967 -11.7839 336.367 19.4161 319.867C50.6161 303.367 53.8161 288.367 62.1161 293.467C70.4161 298.467 108.216 309.967 113.116 319.867C118.016 329.767 132.816 376.667 142.716 396.767C152.616 416.867 185.316 461.167 201.016 459.567C216.716 457.967 234.816 462.867 239.716 474.367C244.616 485.867 270.916 531.367 277.516 541.467C284.116 551.567 313.316 604.167 311.816 609.067C310.316 613.967 338.716 683.067 338.716 683.067L238.116 727.367L23.016 680.467C23.016 680.467 -18.4839 585.267 -25.8839 575.567C-33.4839 565.867 -15.0839 374.967 -15.0839 374.967Z" fill="url(#paint3_linear_0_1)"/>
<path d="M-244.784 267.267C-244.784 267.267 -187.484 214.667 -175.884 217.967C-164.284 221.267 -125.484 203.167 -100.084 199.867C-74.784 196.567 -51.384 196.567 -21.184 226.167C9.01604 255.767 -21.284 257.367 -3.98401 313.267C13.316 369.167 82.9161 474.267 95.2161 529.567C107.516 584.967 143.316 697.667 157.816 705.167C172.216 712.567 492.316 737.767 492.316 737.767L179.316 875.767L-245.184 768.567L-244.784 267.267Z" fill="url(#paint4_linear_0_1)"/>
<path d="M-145.784 242.767C-137.784 259.567 -123.184 272.667 -121.684 278.567C-120.184 284.367 -113.684 250.767 -113.684 250.767C-113.684 250.767 -84.084 249.267 -77.684 250.767C-71.284 252.267 -63.984 228.167 -54.484 227.367C-44.984 226.567 -30.384 252.167 -33.984 268.267C-37.684 284.367 -17.2839 326.667 -27.7839 330.367C-38.3839 334.067 -82.8839 344.267 -73.3839 347.867C-63.8839 351.567 -32.484 337.667 -20.084 342.067C-7.68398 346.467 37.416 402.567 37.516 402.667C19.916 369.067 3.31599 336.767 -3.98401 313.267C-21.284 257.367 9.01604 255.767 -21.184 226.167C-51.384 196.567 -74.784 196.567 -100.084 199.867C-125.384 203.167 -164.284 221.267 -175.884 217.967C-180.684 216.567 -193.184 224.767 -206.284 234.767C-206.284 234.867 -153.784 225.967 -145.784 242.767Z" fill="#43658E"/>
<path d="M47.7161 323.067C52.5161 315.967 60.7161 302.767 65.7161 308.867C70.6161 314.867 89.8161 308.267 88.2161 326.067C86.6161 343.867 82.7161 353.167 94.2161 340.067C105.716 326.967 112.816 345.567 117.816 359.767C122.716 373.967 138.116 417.267 114.516 423.867C90.916 430.467 104.716 428.067 132.916 433.667C161.116 439.167 173.716 461.867 179.816 457.267C185.916 452.667 196.116 470.967 194.016 476.967C193.016 479.867 199.816 469.767 208.516 459.267C206.016 459.167 203.516 459.267 201.016 459.567C185.316 461.167 152.616 416.867 142.716 396.767C132.816 376.667 118.016 329.767 113.116 319.867C108.216 309.967 70.4161 298.467 62.1161 293.467C53.8161 288.467 50.716 303.467 19.416 319.867C18.816 320.167 18.116 320.567 17.516 320.967C17.716 324.267 19.316 326.567 24.016 325.267C36.116 321.967 42.9161 330.167 47.7161 323.067Z" fill="#53819B"/>
<path d="M594.016 496.267C589.216 495.967 584.416 495.867 579.616 495.767C563.716 495.667 547.816 495.767 531.916 496.967C499.016 499.567 467.316 507.567 440.016 526.667C428.016 535.067 416.816 544.667 405.916 554.467C400.716 559.067 395.616 563.767 390.416 568.267C387.816 570.567 385.216 572.767 382.516 574.967C381.216 576.067 379.916 577.167 378.516 578.267C377.716 578.867 376.916 579.567 376.116 580.167C375.916 580.367 375.616 580.567 375.316 580.767C370.316 584.467 365.116 588.067 359.716 591.267C356.716 593.067 353.716 594.667 350.516 596.267C345.916 598.567 345.716 598.667 340.916 600.467C326.216 605.967 310.816 609.267 295.516 612.367C280.616 615.367 265.716 617.967 251.116 622.067C234.716 626.567 219.316 633.467 203.816 640.067C193.316 644.567 175.916 650.967 164.016 652.767C146.716 655.367 128.716 653.667 111.416 652.167C76.5161 649.167 41.8161 647.867 6.91606 650.467C-8.98394 651.667 -24.8839 653.567 -40.5839 655.967C-46.5839 653.867 -53.1839 653.267 -59.8839 654.267C-77.2839 657.067 -87.9839 672.567 -89.2839 689.367C-91.8839 724.167 -57.084 742.867 -34.984 763.067C-10.784 785.067 11.9161 808.267 38.9161 827.167C64.4161 844.967 92.2161 858.867 121.116 870.067C181.316 893.367 246.416 902.367 310.816 903.167C345.916 903.567 381.016 901.567 415.916 898.167C451.016 894.867 486.316 891.067 521.016 884.967C546.116 880.567 571.516 873.467 594.016 860.967V496.267ZM-51.8839 688.367H-51.984C-51.784 688.367 -51.6839 688.367 -51.6839 688.367C-51.6839 688.367 -51.7839 688.367 -51.8839 688.367Z" fill="url(#paint5_linear_0_1)"/>
<path d="M291.116 642.967C285.416 643.467 275.816 629.867 275.816 629.867C280.416 636.067 285.316 634.167 285.316 634.167C283.216 634.067 280.316 632.067 278.416 630.467C283.216 633.767 289.216 632.067 289.216 632.067C283.816 631.867 279.016 625.067 279.016 625.067C283.616 628.867 291.016 628.367 291.016 628.367C286.616 627.567 278.616 623.567 273.416 620.667C279.916 622.367 289.616 621.767 289.616 621.767C273.116 618.867 267.016 610.267 267.016 610.267C269.916 613.267 279.716 614.767 281.216 614.967C278.816 614.567 274.516 612.567 271.316 610.967C275.416 612.267 280.616 612.467 280.616 612.467C275.816 611.567 270.916 606.167 268.316 602.867C273.416 608.567 279.916 607.167 279.916 607.167C274.816 606.667 269.616 598.967 266.916 594.267C269.316 597.767 271.716 597.667 271.716 597.667C269.516 597.267 267.316 590.967 267.316 590.967C272.016 598.767 279.116 598.267 279.116 598.267C273.216 597.767 267.416 589.067 267.416 589.067C271.116 594.167 277.616 591.867 277.616 591.867C270.316 591.367 265.816 579.967 265.816 579.967C268.016 582.867 272.816 582.967 274.216 582.867C272.116 582.867 270.116 581.867 268.616 580.867C272.016 582.467 276.616 581.567 276.616 581.567C272.816 581.367 267.116 572.267 267.116 572.267C270.516 575.067 274.716 573.267 274.716 573.267C270.516 573.167 266.716 567.467 266.716 567.467C269.516 571.167 274.716 570.067 274.716 570.067C269.016 570.167 263.816 561.067 263.816 561.067C266.016 564.767 269.316 563.267 269.316 563.267C265.516 563.167 263.616 558.967 263.616 558.967C266.516 562.667 272.016 560.667 272.016 560.667C263.216 558.867 261.316 552.367 261.316 552.367C264.316 556.567 269.316 554.867 269.316 554.867C264.116 555.567 261.316 551.367 261.316 551.367C264.816 556.167 272.216 553.367 272.216 553.367C265.116 553.767 260.916 546.167 260.916 546.167C262.216 547.967 264.616 547.267 264.616 547.267C262.616 547.667 259.416 542.967 259.416 542.967C262.316 546.467 267.616 544.067 267.616 544.067C262.816 545.667 253.516 531.467 253.516 531.467C253.516 531.467 244.216 545.667 239.416 544.067C239.416 544.067 244.716 546.567 247.616 542.967C247.616 542.967 244.416 547.667 242.416 547.267C242.416 547.267 244.816 547.967 246.116 546.167C246.116 546.167 241.916 553.767 234.816 553.367C234.816 553.367 242.316 556.167 245.716 551.367C245.716 551.367 242.916 555.567 237.716 554.867C237.716 554.867 242.716 556.667 245.716 552.367C245.716 552.367 243.716 558.867 235.016 560.667C235.016 560.667 240.616 562.767 243.416 558.967C243.416 558.967 241.616 563.167 237.716 563.267C237.716 563.267 241.016 564.767 243.216 561.067C243.216 561.067 237.916 570.167 232.316 570.067C232.316 570.067 237.416 571.167 240.316 567.467C240.316 567.467 236.616 573.267 232.316 573.267C232.316 573.267 236.516 575.067 239.916 572.267C239.916 572.267 234.216 581.467 230.416 581.567C230.416 581.567 235.016 582.467 238.416 580.867C236.916 581.867 234.916 582.967 232.816 582.867C234.216 582.967 239.016 582.867 241.216 579.967C241.216 579.967 236.616 591.367 229.416 591.867C229.416 591.867 235.916 594.167 239.616 589.067C239.616 589.067 233.816 597.767 227.916 598.267C227.916 598.267 234.916 598.867 239.716 590.967C239.716 590.967 237.516 597.267 235.316 597.667C235.316 597.667 237.616 597.667 240.116 594.267C237.416 599.067 232.216 606.667 227.116 607.167C227.116 607.167 233.516 608.567 238.716 602.867C236.116 606.167 231.216 611.567 226.416 612.467C226.416 612.467 231.516 612.267 235.716 610.967C232.516 612.567 228.216 614.567 225.816 614.967C227.316 614.767 237.116 613.267 240.016 610.267C240.016 610.267 233.916 618.867 217.416 621.767C217.416 621.767 227.016 622.367 233.616 620.667C228.316 623.567 220.416 627.567 216.016 628.367C216.016 628.367 223.416 628.867 228.016 625.067C228.016 625.067 223.316 631.767 217.816 632.067C217.816 632.067 223.716 633.767 228.616 630.467C226.716 632.067 223.816 634.067 221.716 634.167C221.716 634.167 226.616 636.067 231.216 629.867C231.216 629.867 221.616 643.467 215.916 642.967C215.916 642.967 223.816 643.767 229.916 640.167C228.216 641.967 226.416 643.767 224.616 645.167H252.816H254.316H282.516C280.816 643.767 278.916 641.967 277.216 640.167C283.116 643.867 291.116 642.967 291.116 642.967Z" fill="url(#paint6_linear_0_1)"/>
<path d="M289.116 628.767C284.716 631.467 276.016 636.467 271.316 636.367C271.316 636.367 272.716 636.567 274.816 636.767H350.416C352.516 636.567 353.916 636.367 353.916 636.367C349.216 636.467 340.516 631.467 336.116 628.767C342.316 630.967 354.616 629.167 354.616 629.167C351.516 628.467 348.016 626.767 344.616 624.567C346.016 624.467 347.016 624.167 347.016 624.167C345.116 623.967 342.716 622.967 340.816 621.967C338.616 620.367 336.416 618.667 334.516 617.067C337.616 618.067 341.516 617.567 341.516 617.567C339.516 617.167 338.016 616.367 337.016 615.367C340.516 615.267 343.316 613.867 343.316 613.867C338.316 611.667 335.316 608.067 335.316 608.067C339.016 611.167 348.916 607.467 348.916 607.467C339.516 606.667 329.616 597.767 325.716 593.967C329.316 596.667 333.516 595.267 333.516 595.267C327.116 595.667 323.616 586.667 323.616 586.667C329.116 594.767 344.116 590.667 344.116 590.667C331.916 591.167 323.116 572.967 323.116 572.967C329.116 580.067 339.716 576.067 339.716 576.067C329.516 575.867 327.116 567.167 327.116 567.167C330.516 568.767 331.716 567.667 331.716 567.667C327.816 567.767 324.916 563.367 324.916 563.367C331.016 568.567 338.916 563.767 338.916 563.767C332.816 565.067 325.616 552.967 325.616 552.967C328.516 555.167 333.916 552.967 333.916 552.967C331.416 553.567 326.716 550.967 323.516 548.967C330.016 551.967 338.916 549.867 338.916 549.867C328.316 548.467 322.416 540.667 322.416 540.667C326.216 542.267 328.816 541.367 328.816 541.367C321.116 541.267 318.316 534.467 318.316 534.467C319.316 535.867 324.616 536.067 324.616 536.067C323.016 536.067 320.016 533.467 320.016 533.467C324.116 535.367 330.916 533.767 330.916 533.767C317.416 533.767 315.016 521.067 316.916 523.167C318.816 525.367 321.516 523.667 321.516 523.667C316.516 521.467 314.216 514.767 313.116 509.267V501.667C313.116 501.667 313.116 503.667 312.716 506.567C312.316 503.667 312.316 501.667 312.316 501.667V509.267C311.216 514.767 309.016 521.467 303.916 523.667C303.916 523.667 306.716 525.267 308.516 523.167C310.416 520.967 308.016 533.767 294.516 533.767C294.516 533.767 301.316 535.367 305.416 533.467C305.416 533.467 302.416 536.067 300.816 536.067C300.816 536.067 306.016 535.967 307.116 534.467C307.116 534.467 304.416 541.167 296.616 541.367C296.616 541.367 299.216 542.167 303.016 540.667C303.016 540.667 297.116 548.367 286.516 549.867C286.516 549.867 295.416 552.067 301.916 548.967C298.716 550.967 294.016 553.567 291.516 552.967C291.516 552.967 296.916 555.167 299.816 552.967C299.816 552.967 292.716 565.167 286.516 563.767C286.516 563.767 294.316 568.567 300.516 563.367C300.516 563.367 297.616 567.867 293.716 567.667C293.716 567.667 294.916 568.767 298.316 567.167C298.316 567.167 295.916 575.867 285.716 576.067C285.716 576.067 296.316 580.067 302.316 572.967C302.316 572.967 293.416 591.167 281.316 590.667C281.316 590.667 296.316 594.767 301.816 586.667C301.816 586.667 298.316 595.567 291.916 595.267C291.916 595.267 296.116 596.667 299.716 593.967C295.816 597.767 285.916 606.667 276.516 607.467C276.516 607.467 286.416 611.167 290.116 608.067C290.116 608.067 287.116 611.567 282.116 613.867C282.116 613.867 284.916 615.267 288.416 615.367C287.416 616.267 285.916 617.167 283.916 617.567C283.916 617.567 287.716 618.067 290.916 617.067C289.016 618.667 286.916 620.367 284.616 621.967C282.716 622.867 280.316 623.867 278.416 624.167C278.416 624.167 279.316 624.567 280.816 624.567C277.416 626.767 273.916 628.467 270.816 629.167C270.616 629.267 282.916 630.967 289.116 628.767ZM331.616 634.167C331.516 634.067 331.516 633.967 331.516 633.967C331.516 633.967 331.616 634.067 331.616 634.167ZM293.616 633.967C293.616 633.967 293.616 634.067 293.516 634.167C293.516 634.067 293.616 633.967 293.616 633.967Z" fill="url(#paint7_linear_0_1)"/>
<path d="M153.516 669.667C148.616 672.667 138.916 678.267 133.616 678.167C133.616 678.167 135.216 678.367 137.516 678.667H222.016C224.416 678.467 225.916 678.167 225.916 678.167C220.616 678.267 210.916 672.767 206.016 669.667C212.916 672.167 226.716 670.167 226.716 670.167C223.216 669.367 219.316 667.467 215.516 664.967C217.116 664.867 218.116 664.467 218.116 664.467C216.016 664.167 213.316 663.067 211.216 662.067C208.716 660.267 206.316 658.367 204.216 656.567C207.716 657.667 212.016 657.167 212.016 657.167C209.816 656.767 208.116 655.767 207.016 654.767C210.916 654.667 214.016 653.067 214.016 653.067C208.516 650.567 205.116 646.567 205.116 646.567C209.216 650.067 220.316 645.867 220.316 645.867C209.816 644.967 198.716 635.067 194.416 630.767C198.416 633.867 203.116 632.267 203.116 632.267C195.916 632.667 192.016 622.667 192.016 622.667C198.116 631.667 214.916 627.067 214.916 627.067C201.316 627.567 191.416 607.267 191.416 607.267C198.116 615.167 210.016 610.767 210.016 610.767C198.616 610.467 196.016 600.767 196.016 600.767C199.816 602.567 201.116 601.267 201.116 601.267C196.716 601.367 193.516 596.467 193.516 596.467C200.416 602.267 209.116 596.867 209.116 596.867C202.216 598.367 194.216 584.767 194.216 584.767C197.516 587.167 203.516 584.767 203.516 584.767C200.716 585.467 195.416 582.567 191.916 580.267C199.216 583.667 209.116 581.267 209.116 581.267C197.316 579.667 190.716 571.067 190.716 571.067C194.916 572.867 197.916 571.867 197.916 571.867C189.316 571.767 186.216 564.167 186.216 564.167C187.416 565.767 193.216 565.967 193.216 565.967C191.416 565.967 188.116 562.967 188.116 562.967C192.716 565.067 200.316 563.267 200.316 563.267C185.216 563.267 182.516 549.067 184.616 551.467C186.716 553.867 189.816 552.067 189.816 552.067C184.216 549.667 181.616 542.067 180.516 535.967V527.467C180.516 527.467 180.416 529.767 180.016 532.967C179.616 529.767 179.516 527.467 179.516 527.467V535.967C178.316 542.067 175.816 549.667 170.216 552.067C170.216 552.067 173.316 553.867 175.416 551.467C177.516 549.067 174.816 563.267 159.716 563.267C159.716 563.267 167.316 565.067 171.916 562.967C171.916 562.967 168.516 565.967 166.816 565.967C166.816 565.967 172.616 565.867 173.816 564.167C173.816 564.167 170.716 571.667 162.116 571.867C162.116 571.867 165.016 572.767 169.316 571.067C169.316 571.067 162.716 579.667 150.916 581.267C150.916 581.267 160.816 583.667 168.116 580.267C164.516 582.467 159.216 585.367 156.516 584.767C156.516 584.767 162.516 587.167 165.816 584.767C165.816 584.767 157.816 598.367 150.916 596.867C150.916 596.867 159.716 602.267 166.516 596.467C166.516 596.467 163.316 601.467 158.916 601.267C158.916 601.267 160.216 602.467 164.016 600.767C164.016 600.767 161.416 610.467 150.016 610.767C150.016 610.767 161.816 615.167 168.616 607.267C168.616 607.267 158.716 627.567 145.116 627.067C145.116 627.067 161.916 631.667 168.016 622.667C168.016 622.667 164.116 632.667 156.916 632.267C156.916 632.267 161.616 633.867 165.616 630.767C161.316 635.067 150.216 644.967 139.716 645.867C139.716 645.867 150.816 650.067 154.916 646.567C154.916 646.567 151.516 650.567 146.016 653.067C146.016 653.067 149.116 654.567 153.016 654.767C151.916 655.767 150.216 656.767 148.016 657.167C148.016 657.167 152.316 657.667 155.816 656.567C153.716 658.367 151.316 660.267 148.816 662.067C146.716 663.167 144.016 664.167 141.916 664.467C141.916 664.467 142.916 664.867 144.516 664.967C140.716 667.367 136.816 669.367 133.316 670.167C132.816 670.167 146.616 672.167 153.516 669.667ZM201.116 675.667C201.016 675.467 200.916 675.467 200.916 675.467C201.016 675.467 201.016 675.567 201.116 675.667ZM158.616 675.367C158.616 675.367 158.616 675.467 158.516 675.567C158.516 675.567 158.516 675.467 158.616 675.367Z" fill="url(#paint8_linear_0_1)"/>
<path d="M47.7161 640.367C36.7161 641.267 18.416 615.267 18.416 615.267C27.316 627.167 36.7161 623.567 36.7161 623.567C32.6161 623.467 27.116 619.567 23.416 616.567C32.716 622.867 44.1161 619.567 44.1161 619.567C33.7161 619.067 24.6161 606.167 24.6161 606.167C33.4161 613.367 47.6161 612.467 47.6161 612.467C39.1161 610.967 23.916 603.167 13.816 597.667C26.316 600.967 44.816 599.767 44.816 599.767C13.116 594.167 1.51599 577.667 1.51599 577.667C7.11599 583.467 25.916 586.367 28.816 586.767C24.316 586.067 15.916 582.167 9.81604 579.067C17.716 581.667 27.6161 581.967 27.6161 581.967C18.4161 580.167 9.01599 569.967 4.01599 563.567C13.916 574.467 26.2161 571.767 26.2161 571.767C16.3161 570.667 6.51606 556.167 1.21606 546.967C5.91606 553.567 10.416 553.467 10.416 553.467C6.31602 552.667 2.01599 540.567 2.01599 540.567C11.116 555.667 24.6161 554.567 24.6161 554.567C13.2161 553.667 2.21606 536.867 2.21606 536.867C9.31606 546.667 21.7161 542.267 21.7161 542.267C7.71606 541.367 -0.984009 519.367 -0.984009 519.367C3.31599 524.967 12.4161 525.067 15.1161 524.967C11.2161 525.067 7.21602 523.067 4.41602 521.067C10.916 524.167 19.816 522.467 19.816 522.467C12.616 522.167 1.61609 504.567 1.61609 504.567C8.11609 509.967 16.1161 506.467 16.1161 506.467C8.01609 506.367 0.81604 495.267 0.81604 495.267C6.21604 502.467 16.1161 500.267 16.1161 500.267C5.21609 500.467 -4.88391 483.067 -4.88391 483.067C-0.683911 490.167 5.61609 487.267 5.61609 487.267C-1.78391 487.167 -5.28394 479.067 -5.28394 479.067C0.216064 486.267 10.916 482.267 10.916 482.267C-5.88398 478.867 -9.68396 466.367 -9.68396 466.367C-3.98396 474.467 5.71606 471.067 5.71606 471.067C-4.28394 472.367 -9.68396 464.267 -9.68396 464.267C-2.98396 473.467 11.316 468.167 11.316 468.167C-2.28396 468.967 -10.2839 454.367 -10.2839 454.367C-7.78394 457.767 -3.18396 456.367 -3.18396 456.367C-6.98396 457.067 -13.084 448.067 -13.084 448.067C-7.58398 454.867 2.71606 450.067 2.71606 450.067C-6.48394 453.167 -24.2839 425.967 -24.2839 425.967C-24.2839 425.967 -42.0839 453.167 -51.2839 450.067C-51.2839 450.067 -41.084 454.767 -35.484 448.067C-35.484 448.067 -41.5839 457.067 -45.3839 456.367C-45.3839 456.367 -40.7839 457.667 -38.2839 454.367C-38.2839 454.367 -46.2839 468.967 -59.8839 468.167C-59.8839 468.167 -45.5839 473.467 -38.8839 464.267C-38.8839 464.267 -44.1839 472.367 -54.2839 471.067C-54.2839 471.067 -44.6839 474.467 -38.8839 466.367C-38.8839 466.367 -42.684 478.867 -59.484 482.267C-59.484 482.267 -48.8839 486.267 -43.2839 479.067C-43.2839 479.067 -46.784 487.167 -54.184 487.267C-54.184 487.267 -47.884 490.167 -43.684 483.067C-43.684 483.067 -53.784 500.467 -64.684 500.267C-64.684 500.267 -54.8839 502.467 -49.3839 495.267C-49.3839 495.267 -56.584 506.367 -64.684 506.467C-64.684 506.467 -56.584 509.967 -50.184 504.567C-50.184 504.567 -61.1839 522.167 -68.3839 522.467C-68.3839 522.467 -59.484 524.167 -52.984 521.067C-55.884 523.067 -59.784 525.067 -63.684 524.967C-60.984 525.067 -51.884 524.967 -47.584 519.367C-47.584 519.367 -56.3839 541.367 -70.2839 542.267C-70.2839 542.267 -57.8839 546.767 -50.7839 536.867C-50.7839 536.867 -61.884 553.567 -73.184 554.567C-73.184 554.567 -59.684 555.667 -50.584 540.567C-50.584 540.567 -54.884 552.667 -58.984 553.467C-58.984 553.467 -54.4839 553.567 -49.7839 546.967C-54.9839 556.067 -64.8839 570.667 -74.7839 571.767C-74.7839 571.767 -62.484 574.467 -52.584 563.567C-57.584 569.867 -66.984 580.167 -76.184 581.967C-76.184 581.967 -66.3839 581.667 -58.3839 579.067C-64.4839 582.167 -72.8839 586.067 -77.3839 586.767C-74.4839 586.367 -55.784 583.467 -50.084 577.667C-50.084 577.667 -61.6839 594.167 -93.3839 599.767C-93.3839 599.767 -74.8839 600.967 -62.3839 597.667C-72.4839 603.167 -87.684 610.967 -96.184 612.467C-96.184 612.467 -81.884 613.367 -73.184 606.167C-73.184 606.167 -82.284 619.067 -92.684 619.567C-92.684 619.567 -81.284 622.867 -71.984 616.567C-75.684 619.567 -81.1839 623.467 -85.2839 623.567C-85.2839 623.567 -75.884 627.167 -66.984 615.267C-66.984 615.267 -85.2839 641.367 -96.2839 640.367C-96.2839 640.367 -81.0839 641.967 -69.3839 634.967C-72.5839 638.367 -76.184 641.867 -79.484 644.567H-25.3839H-22.484H31.6161C28.3161 641.867 24.716 638.367 21.516 634.967C32.616 641.967 47.7161 640.367 47.7161 640.367Z" fill="url(#paint9_linear_0_1)"/>
<path d="M113.016 684.267C106.316 688.467 93.0161 696.067 85.7161 695.867C85.7161 695.867 87.8161 696.167 91.1161 696.467H206.916C210.116 696.167 212.316 695.867 212.316 695.867C205.016 695.967 191.716 688.367 185.016 684.267C194.416 687.667 213.416 684.967 213.416 684.967C208.716 683.867 203.316 681.267 198.016 677.867C200.216 677.767 201.616 677.267 201.616 677.267C198.716 676.867 195.116 675.367 192.216 673.967C188.816 671.467 185.516 668.867 182.616 666.467C187.416 668.067 193.316 667.267 193.316 667.267C190.216 666.767 188.016 665.367 186.416 663.967C191.716 663.767 196.016 661.667 196.016 661.667C188.416 658.267 183.816 652.767 183.816 652.767C189.416 657.567 204.616 651.867 204.616 651.867C190.216 650.567 175.016 636.967 169.016 631.167C174.416 635.367 180.916 633.167 180.916 633.167C171.116 633.767 165.716 620.067 165.716 620.067C174.116 632.467 197.216 626.167 197.216 626.167C178.616 626.867 164.916 598.967 164.916 598.967C174.116 609.867 190.416 603.767 190.416 603.767C174.816 603.367 171.216 590.067 171.216 590.067C176.416 592.467 178.216 590.767 178.216 590.767C172.216 590.967 167.816 584.167 167.816 584.167C177.216 592.067 189.216 584.767 189.216 584.767C179.816 586.767 168.816 568.167 168.816 568.167C173.316 571.467 181.616 568.167 181.616 568.167C177.816 569.067 170.516 565.167 165.716 562.067C175.716 566.667 189.316 563.367 189.316 563.367C173.116 561.167 164.016 549.367 164.016 549.367C169.816 551.767 173.816 550.467 173.816 550.467C162.016 550.267 157.816 539.967 157.816 539.967C159.416 542.167 167.416 542.367 167.416 542.367C165.016 542.367 160.416 538.267 160.416 538.267C166.716 541.167 177.116 538.667 177.116 538.667C156.416 538.667 152.816 519.167 155.616 522.467C158.416 525.767 162.716 523.267 162.716 523.267C155.016 519.967 151.516 509.567 149.916 501.167V489.567C149.916 489.567 149.816 492.667 149.216 497.067C148.616 492.667 148.516 489.567 148.516 489.567V501.167C146.916 509.567 143.416 519.967 135.716 523.267C135.716 523.267 139.916 525.767 142.816 522.467C145.716 519.167 142.016 538.667 121.316 538.667C121.316 538.667 131.716 541.167 138.016 538.267C138.016 538.267 133.416 542.367 131.016 542.367C131.016 542.367 139.016 542.167 140.616 539.967C140.616 539.967 136.416 550.267 124.616 550.467C124.616 550.467 128.616 551.767 134.416 549.367C134.416 549.367 125.416 561.167 109.116 563.367C109.116 563.367 122.716 566.667 132.716 562.067C127.816 565.167 120.516 569.067 116.816 568.167C116.816 568.167 125.116 571.467 129.616 568.167C129.616 568.167 118.616 586.867 109.216 584.767C109.216 584.767 121.216 592.167 130.616 584.167C130.616 584.167 126.216 590.967 120.216 590.767C120.216 590.767 122.016 592.467 127.216 590.067C127.216 590.067 123.616 603.367 108.016 603.767C108.016 603.767 124.216 609.867 133.516 598.967C133.516 598.967 119.916 626.867 101.216 626.167C101.216 626.167 124.216 632.467 132.716 620.067C132.716 620.067 127.316 633.767 117.516 633.167C117.516 633.167 124.016 635.367 129.416 631.167C123.516 636.967 108.216 650.567 93.816 651.867C93.816 651.867 109.016 657.567 114.616 652.767C114.616 652.767 110.016 658.167 102.416 661.667C102.416 661.667 106.616 663.767 112.016 663.967C110.416 665.367 108.216 666.767 105.116 667.267C105.116 667.267 111.016 667.967 115.816 666.467C112.916 668.867 109.616 671.467 106.216 673.967C103.316 675.367 99.716 676.867 96.816 677.267C96.816 677.267 98.216 677.867 100.416 677.867C95.116 681.167 89.816 683.867 85.016 684.967C84.716 684.967 103.616 687.667 113.016 684.267ZM178.316 692.467C178.116 692.267 178.116 692.167 178.116 692.167C178.116 692.267 178.216 692.367 178.316 692.467ZM120.016 692.167C120.016 692.167 119.916 692.267 119.816 692.467C119.816 692.367 119.916 692.267 120.016 692.167Z" fill="url(#paint10_linear_0_1)"/>
<path d="M594.016 561.967C586.216 561.267 578.516 561.067 570.816 561.467C570.316 561.367 569.916 561.167 569.416 561.067C565.116 559.967 560.316 560.667 556.416 562.667C520.516 567.167 485.716 581.667 453.716 598.167C432.716 608.967 412.216 620.867 391.216 631.667C369.516 642.867 350.716 651.467 327.216 657.967C315.616 661.167 303.816 663.667 291.916 665.367C283.416 666.567 268.716 667.667 257.816 667.967C245.716 668.267 233.716 667.967 221.616 667.167C215.916 666.767 210.216 666.267 204.516 665.667C198.016 664.967 193.016 664.367 188.016 663.667C138.716 656.567 90.816 643.067 42.916 629.867C-7.08398 616.067 -57.484 602.967 -109.184 597.167C-134.384 594.367 -159.784 593.467 -184.984 595.567C-204.884 597.167 -226.084 599.567 -244.684 607.567V1017.47C-244.684 1036.07 -229.584 1051.07 -211.084 1051.07H560.416C579.016 1051.07 594.016 1035.97 594.016 1017.47V561.967Z" fill="url(#paint11_linear_0_1)"/>
<path d="M442.816 690.067C431.816 690.967 413.516 664.967 413.516 664.967C422.416 676.867 431.816 673.267 431.816 673.267C427.716 673.167 422.216 669.267 418.516 666.267C427.816 672.567 439.216 669.267 439.216 669.267C428.816 668.767 419.716 655.867 419.716 655.867C428.516 663.067 442.716 662.167 442.716 662.167C434.216 660.667 419.016 652.867 408.916 647.367C421.416 650.667 439.916 649.467 439.916 649.467C408.216 643.867 396.616 627.367 396.616 627.367C402.216 633.167 421.016 636.067 423.916 636.467C419.416 635.767 411.016 631.867 404.916 628.767C412.816 631.367 422.716 631.667 422.716 631.667C413.516 629.867 404.116 619.667 399.116 613.267C409.016 624.167 421.316 621.467 421.316 621.467C411.416 620.367 401.616 605.867 396.316 596.667C401.016 603.267 405.516 603.167 405.516 603.167C401.416 602.367 397.116 590.267 397.116 590.267C406.216 605.367 419.716 604.267 419.716 604.267C408.316 603.367 397.316 586.567 397.316 586.567C404.416 596.367 416.816 591.967 416.816 591.967C402.816 591.067 394.116 569.067 394.116 569.067C398.416 574.667 407.516 574.767 410.216 574.667C406.316 574.767 402.316 572.767 399.516 570.767C406.016 573.867 414.916 572.167 414.916 572.167C407.716 571.867 396.716 554.267 396.716 554.267C403.216 559.667 411.216 556.167 411.216 556.167C403.116 556.067 395.916 544.967 395.916 544.967C401.316 552.167 411.216 549.967 411.216 549.967C400.316 550.167 390.216 532.767 390.216 532.767C394.416 539.867 400.716 536.967 400.716 536.967C393.316 536.867 389.816 528.767 389.816 528.767C395.316 535.967 406.016 531.967 406.016 531.967C389.216 528.567 385.416 516.067 385.416 516.067C391.116 524.167 400.816 520.767 400.816 520.767C390.816 522.067 385.416 513.967 385.416 513.967C392.116 523.167 406.416 517.867 406.416 517.867C392.816 518.667 384.816 504.067 384.816 504.067C387.316 507.467 391.916 506.067 391.916 506.067C388.116 506.767 382.016 497.767 382.016 497.767C387.516 504.567 397.816 499.767 397.816 499.767C388.616 502.867 370.816 475.667 370.816 475.667C370.816 475.667 353.016 502.867 343.816 499.767C343.816 499.767 354.016 504.467 359.616 497.767C359.616 497.767 353.516 506.767 349.716 506.067C349.716 506.067 354.316 507.367 356.816 504.067C356.816 504.067 348.816 518.667 335.216 517.867C335.216 517.867 349.516 523.167 356.216 513.967C356.216 513.967 350.916 522.067 340.816 520.767C340.816 520.767 350.416 524.167 356.216 516.067C356.216 516.067 352.416 528.567 335.616 531.967C335.616 531.967 346.216 535.967 351.816 528.767C351.816 528.767 348.316 536.867 340.916 536.967C340.916 536.967 347.216 539.867 351.416 532.767C351.416 532.767 341.316 550.167 330.416 549.967C330.416 549.967 340.216 552.167 345.716 544.967C345.716 544.967 338.516 556.067 330.416 556.167C330.416 556.167 338.516 559.667 344.916 554.267C344.916 554.267 333.916 571.867 326.716 572.167C326.716 572.167 335.616 573.867 342.116 570.767C339.216 572.767 335.316 574.767 331.416 574.667C334.116 574.767 343.216 574.667 347.516 569.067C347.516 569.067 338.716 591.067 324.816 591.967C324.816 591.967 337.216 596.467 344.316 586.567C344.316 586.567 333.216 603.267 321.916 604.267C321.916 604.267 335.416 605.367 344.516 590.267C344.516 590.267 340.216 602.367 336.116 603.167C336.116 603.167 340.616 603.267 345.316 596.667C340.116 605.767 330.216 620.367 320.316 621.467C320.316 621.467 332.616 624.167 342.516 613.267C337.516 619.567 328.116 629.867 318.916 631.667C318.916 631.667 328.716 631.367 336.716 628.767C330.616 631.867 322.216 635.767 317.716 636.467C320.616 636.067 339.316 633.167 345.016 627.367C345.016 627.367 333.416 643.867 301.716 649.467C301.716 649.467 320.216 650.667 332.716 647.367C322.616 652.867 307.416 660.667 298.916 662.167C298.916 662.167 313.216 663.067 321.916 655.867C321.916 655.867 312.816 668.767 302.416 669.267C302.416 669.267 313.816 672.567 323.116 666.267C319.416 669.267 313.916 673.167 309.816 673.267C309.816 673.267 319.216 676.867 328.116 664.967C328.116 664.967 309.816 691.067 298.816 690.067C298.816 690.067 314.016 691.667 325.716 684.667C322.516 688.067 318.916 691.567 315.616 694.267H369.716H372.616H426.716C423.416 691.567 419.816 688.067 416.616 684.667C427.616 691.667 442.816 690.067 442.816 690.067Z" fill="url(#paint12_linear_0_1)"/>
<path d="M43.1161 732.367C24.8161 733.867 -5.78394 690.467 -5.78394 690.467C9.01606 710.267 24.7161 704.267 24.7161 704.267C17.9161 704.067 8.61599 697.567 2.51599 692.567C18.016 703.167 37.016 697.667 37.016 697.667C19.616 696.867 4.51599 675.367 4.51599 675.367C19.116 687.367 42.916 685.867 42.916 685.867C28.716 683.267 3.41599 670.367 -13.484 661.167C7.41599 666.667 38.316 664.667 38.316 664.667C-14.584 655.267 -33.984 627.767 -33.984 627.767C-24.584 637.467 6.71599 642.267 11.516 642.967C3.91599 641.767 -9.98396 635.267 -20.184 630.067C-6.98396 634.367 9.41602 634.867 9.41602 634.867C-5.98398 631.867 -21.584 614.767 -29.984 604.167C-13.584 622.367 7.01599 617.967 7.01599 617.967C-9.48401 616.167 -25.884 591.867 -34.584 576.667C-26.784 587.767 -19.2839 587.567 -19.2839 587.567C-26.1839 586.267 -33.3839 566.067 -33.3839 566.067C-18.2839 591.167 4.31604 589.367 4.31604 589.367C-14.684 587.867 -33.084 559.867 -33.084 559.867C-21.284 576.267 -0.583984 568.867 -0.583984 568.867C-23.884 567.367 -38.484 530.667 -38.484 530.667C-31.384 539.967 -16.184 540.167 -11.584 539.967C-18.184 540.067 -24.684 536.767 -29.484 533.467C-18.684 538.667 -3.88391 535.867 -3.88391 535.867C-15.8839 535.367 -34.2839 505.967 -34.2839 505.967C-23.4839 515.067 -9.98401 509.167 -9.98401 509.167C-23.484 508.967 -35.484 490.567 -35.484 490.567C-26.384 502.567 -9.98401 498.967 -9.98401 498.967C-28.084 499.267 -44.984 470.267 -44.984 470.267C-37.984 482.067 -27.3839 477.267 -27.3839 477.267C-39.6839 477.067 -45.484 463.567 -45.484 463.567C-36.284 475.567 -18.484 468.867 -18.484 468.867C-46.484 463.267 -52.7839 442.367 -52.7839 442.367C-43.1839 455.867 -27.184 450.267 -27.184 450.267C-43.884 452.467 -52.7839 438.967 -52.7839 438.967C-41.6839 454.367 -17.7839 445.467 -17.7839 445.467C-40.4839 446.867 -53.7839 422.367 -53.7839 422.367C-49.6839 427.967 -41.984 425.767 -41.984 425.767C-48.284 426.967 -58.584 411.967 -58.584 411.967C-49.384 423.267 -32.2839 415.367 -32.2839 415.367C-47.6839 420.467 -77.3839 375.167 -77.3839 375.167C-77.3839 375.167 -107.084 420.467 -122.484 415.367C-122.484 415.367 -105.384 423.267 -96.184 411.967C-96.184 411.967 -106.484 426.967 -112.784 425.767C-112.784 425.767 -105.084 427.967 -100.984 422.367C-100.984 422.367 -114.284 446.767 -136.984 445.467C-136.984 445.467 -113.084 454.367 -101.984 438.967C-101.984 438.967 -110.884 452.467 -127.584 450.267C-127.584 450.267 -111.484 455.867 -101.984 442.367C-101.984 442.367 -108.284 463.167 -136.284 468.867C-136.284 468.867 -118.484 475.567 -109.284 463.567C-109.284 463.567 -115.084 477.067 -127.384 477.267C-127.384 477.267 -116.784 482.067 -109.784 470.267C-109.784 470.267 -126.684 499.267 -144.784 498.967C-144.784 498.967 -128.384 502.567 -119.284 490.567C-119.284 490.567 -131.284 509.067 -144.784 509.167C-144.784 509.167 -131.284 514.967 -120.484 505.967C-120.484 505.967 -138.884 535.367 -150.884 535.867C-150.884 535.867 -136.084 538.667 -125.284 533.467C-130.084 536.767 -136.584 540.167 -143.184 539.967C-138.584 540.167 -123.484 539.967 -116.284 530.667C-116.284 530.667 -130.884 567.267 -154.184 568.867C-154.184 568.867 -133.384 576.267 -121.684 559.867C-121.684 559.867 -140.184 587.767 -159.084 589.367C-159.084 589.367 -136.484 591.167 -121.384 566.067C-121.384 566.067 -128.584 586.267 -135.484 587.567C-135.484 587.567 -127.984 587.767 -120.184 576.667C-128.884 591.867 -145.384 616.267 -161.784 617.967C-161.784 617.967 -141.284 622.467 -124.784 604.167C-133.184 614.767 -148.784 631.867 -164.184 634.867C-164.184 634.867 -147.784 634.367 -134.584 630.067C-144.784 635.267 -158.784 641.767 -166.284 642.967C-161.484 642.267 -130.184 637.467 -120.784 627.767C-120.784 627.767 -140.184 655.267 -193.084 664.667C-193.084 664.667 -162.184 666.767 -141.284 661.167C-158.084 670.367 -183.484 683.367 -197.684 685.867C-197.684 685.867 -173.884 687.367 -159.284 675.367C-159.284 675.367 -174.384 696.867 -191.784 697.667C-191.784 697.667 -172.784 703.167 -157.284 692.567C-163.384 697.567 -172.684 704.067 -179.484 704.267C-179.484 704.267 -163.784 710.267 -148.984 690.467C-148.984 690.467 -179.584 733.967 -197.884 732.367C-197.884 732.367 -172.584 734.967 -153.084 723.367C-158.484 729.067 -164.384 734.867 -169.984 739.367H-79.684H-74.7839H15.516C9.91599 734.867 4.01609 728.967 -1.38391 723.367C17.7161 734.967 43.1161 732.367 43.1161 732.367Z" fill="url(#paint13_linear_0_1)"/>
<path d="M51.916 728.767C41.916 734.967 22.1161 746.267 11.2161 746.067C11.2161 746.067 14.4161 746.567 19.2161 746.967H191.616C196.416 746.467 199.616 746.067 199.616 746.067C188.816 746.267 168.916 734.967 158.916 728.767C173.016 733.867 201.116 729.767 201.116 729.767C194.016 728.167 186.116 724.167 178.216 719.267C181.416 719.167 183.616 718.267 183.616 718.267C179.316 717.767 173.916 715.467 169.516 713.367C164.416 709.667 159.516 705.867 155.216 702.267C162.316 704.567 171.116 703.467 171.116 703.467C166.516 702.667 163.216 700.667 160.916 698.567C168.916 698.267 175.216 695.167 175.216 695.167C163.916 690.067 157.016 681.967 157.016 681.967C165.416 689.067 188.016 680.567 188.016 680.567C166.516 678.667 143.916 658.467 135.016 649.767C143.116 656.067 152.816 652.767 152.816 652.767C138.216 653.567 130.116 633.267 130.116 633.267C142.616 651.667 176.916 642.367 176.916 642.367C149.216 643.467 128.916 601.967 128.916 601.967C142.616 618.167 166.816 609.067 166.816 609.067C143.516 608.567 138.216 588.767 138.216 588.767C146.016 592.367 148.616 589.867 148.616 589.867C139.716 590.167 133.116 579.967 133.116 579.967C147.116 591.767 165.016 580.767 165.016 580.767C151.016 583.767 134.716 556.067 134.716 556.067C141.416 560.967 153.716 556.067 153.716 556.067C148.116 557.467 137.216 551.567 130.016 546.967C144.916 553.867 165.116 548.967 165.116 548.967C140.916 545.667 127.516 528.067 127.516 528.067C136.216 531.667 142.116 529.667 142.116 529.667C124.516 529.367 118.216 513.967 118.216 513.967C120.616 517.267 132.516 517.567 132.516 517.567C128.916 517.567 122.116 511.567 122.116 511.567C131.516 515.867 146.916 512.167 146.916 512.167C116.016 512.167 110.716 483.067 114.916 488.067C119.116 492.967 125.416 489.267 125.416 489.267C114.016 484.367 108.716 468.867 106.316 456.367V439.167C106.316 439.167 106.216 443.767 105.316 450.367C104.416 443.867 104.316 439.167 104.316 439.167V456.367C101.916 468.867 96.7161 484.267 85.2161 489.267C85.2161 489.267 91.5161 492.967 95.7161 488.067C99.9161 483.167 94.6161 512.167 63.7161 512.167C63.7161 512.167 79.116 515.867 88.516 511.567C88.516 511.567 81.7161 517.567 78.1161 517.567C78.1161 517.567 90.016 517.267 92.416 513.967C92.416 513.967 86.116 529.367 68.516 529.667C68.516 529.667 74.5161 531.567 83.1161 528.067C83.1161 528.067 69.716 545.667 45.516 548.967C45.516 548.967 65.7161 553.867 80.6161 546.967C73.3161 551.567 62.516 557.467 56.916 556.067C56.916 556.067 69.216 560.967 75.916 556.067C75.916 556.067 59.6161 583.867 45.6161 580.767C45.6161 580.767 63.516 591.767 77.516 579.967C77.516 579.967 70.916 590.167 62.016 589.867C62.016 589.867 64.716 592.367 72.416 588.767C72.416 588.767 67.016 608.567 43.816 609.067C43.816 609.067 68.0161 618.167 81.7161 601.967C81.7161 601.967 61.4161 643.467 33.7161 642.367C33.7161 642.367 68.016 651.667 80.516 633.267C80.516 633.267 72.416 653.567 57.816 652.767C57.816 652.767 67.4161 655.967 75.6161 649.767C66.7161 658.467 44.1161 678.667 22.6161 680.567C22.6161 680.567 45.3161 689.067 53.6161 681.967C53.6161 681.967 46.716 690.067 35.416 695.167C35.416 695.167 41.7161 698.267 49.7161 698.567C47.4161 700.667 44.016 702.667 39.516 703.467C39.516 703.467 48.316 704.567 55.416 702.267C51.116 705.867 46.2161 709.767 41.1161 713.367C36.7161 715.467 31.416 717.767 27.016 718.267C27.016 718.267 29.116 719.067 32.416 719.267C24.616 724.167 16.616 728.167 9.51599 729.767C9.71599 729.767 37.916 733.867 51.916 728.767ZM149.016 741.067C148.816 740.767 148.716 740.567 148.716 740.567C148.816 740.667 148.916 740.867 149.016 741.067ZM62.2161 740.567C62.2161 740.567 62.116 740.767 61.916 741.067C62.016 740.867 62.1161 740.667 62.2161 740.567Z" fill="url(#paint14_linear_0_1)"/>
<path d="M594.016 1017.47V814.767C575.516 814.567 556.916 813.567 538.516 811.967C527.116 810.967 515.816 809.667 504.416 808.167C504.316 808.167 504.216 808.167 504.216 808.167C504.116 808.167 504.016 808.167 503.916 808.167C502.816 807.967 501.616 807.867 500.516 807.667C497.516 807.267 494.516 806.767 491.416 806.367C485.716 805.467 480.116 804.567 474.416 803.667C429.016 795.967 384.216 785.467 339.616 773.967C251.716 751.267 164.416 725.067 74.6161 710.967C-7.98391 697.967 -91.7839 695.167 -173.884 713.567C-197.884 718.967 -221.684 726.267 -244.684 735.467V1017.67C-244.684 1036.27 -229.584 1051.27 -211.084 1051.27H560.416C579.016 1051.07 594.016 1036.07 594.016 1017.47Z" fill="url(#paint15_linear_0_1)"/>
<path d="M475.916 203.467C475.916 235.664 463.126 266.543 440.359 289.31C417.592 312.076 386.713 324.867 354.516 324.867C322.319 324.867 291.44 312.076 268.673 289.31C245.906 266.543 233.116 235.664 233.116 203.467C233.116 171.27 245.906 140.391 268.673 117.624C291.44 94.8571 322.319 82.0668 354.516 82.0668C386.713 82.0668 417.592 94.8571 440.359 117.624C463.126 140.391 475.916 171.27 475.916 203.467Z" fill="#FFFCEB"/>
</g>
<defs>
<linearGradient id="paint0_linear_0_1" x1="172.706" y1="438.437" x2="172.706" y2="-400.314" gradientUnits="userSpaceOnUse">
<stop offset="0.00731707" stop-color="#E0FCF7"/>
<stop offset="0.2732" stop-color="#71E2CD"/>
<stop offset="0.6902" stop-color="#238FB8"/>
<stop offset="1" stop-color="#31437C"/>
</linearGradient>
<linearGradient id="paint1_linear_0_1" x1="354.502" y1="443.621" x2="354.502" y2="-395.165" gradientUnits="userSpaceOnUse">
<stop stop-color="#E7FCF4"/>
<stop offset="0.00731707" stop-color="#E7FCF4"/>
<stop offset="0.2732" stop-color="#93E8D4"/>
<stop offset="0.6902" stop-color="#58A9C4"/>
<stop offset="1" stop-color="#626F97"/>
</linearGradient>
<linearGradient id="paint2_linear_0_1" x1="354.502" y1="443.621" x2="354.502" y2="-395.165" gradientUnits="userSpaceOnUse">
<stop stop-color="#EDFCF2"/>
<stop offset="0.00731707" stop-color="#EDFCF2"/>
<stop offset="0.2732" stop-color="#ADEDDA"/>
<stop offset="0.6902" stop-color="#80BDCD"/>
<stop offset="1" stop-color="#8891AB"/>
</linearGradient>
<linearGradient id="paint3_linear_0_1" x1="155.412" y1="709.938" x2="155.412" y2="485.234" gradientUnits="userSpaceOnUse">
<stop stop-color="#53819B"/>
<stop offset="1" stop-color="#406B89"/>
</linearGradient>
<linearGradient id="paint4_linear_0_1" x1="123.524" y1="628.051" x2="123.524" y2="344.908" gradientUnits="userSpaceOnUse">
<stop stop-color="#43658E"/>
<stop offset="1" stop-color="#38557F"/>
</linearGradient>
<linearGradient id="paint5_linear_0_1" x1="252.352" y1="713.614" x2="252.352" y2="635.236" gradientUnits="userSpaceOnUse">
<stop stop-color="#415993"/>
<stop offset="1" stop-color="#31437C"/>
</linearGradient>
<linearGradient id="paint6_linear_0_1" x1="240.851" y1="544.117" x2="244.565" y2="571.35" gradientUnits="userSpaceOnUse">
<stop stop-color="#415993"/>
<stop offset="1" stop-color="#31437C"/>
</linearGradient>
<linearGradient id="paint7_linear_0_1" x1="312.57" y1="534.246" x2="312.57" y2="566.314" gradientUnits="userSpaceOnUse">
<stop stop-color="#415993"/>
<stop offset="1" stop-color="#31437C"/>
</linearGradient>
<linearGradient id="paint8_linear_0_1" x1="176.052" y1="560.778" x2="177.513" y2="603.874" gradientUnits="userSpaceOnUse">
<stop stop-color="#2F4B7C"/>
<stop offset="1" stop-color="#223A6B"/>
</linearGradient>
<linearGradient id="paint9_linear_0_1" x1="-24.5808" y1="457.95" x2="-24.5808" y2="517.113" gradientUnits="userSpaceOnUse">
<stop stop-color="#2F4B7C"/>
<stop offset="1" stop-color="#223A6B"/>
</linearGradient>
<linearGradient id="paint10_linear_0_1" x1="149.029" y1="545.13" x2="149.029" y2="574.348" gradientUnits="userSpaceOnUse">
<stop stop-color="#2F4B7C"/>
<stop offset="1" stop-color="#223A6B"/>
</linearGradient>
<linearGradient id="paint11_linear_0_1" x1="174.67" y1="842.933" x2="174.67" y2="710.882" gradientUnits="userSpaceOnUse">
<stop stop-color="#2F4B7C"/>
<stop offset="1" stop-color="#223A6B"/>
</linearGradient>
<linearGradient id="paint12_linear_0_1" x1="383.316" y1="509.355" x2="379.664" y2="556.834" gradientUnits="userSpaceOnUse">
<stop stop-color="#2F4B7C"/>
<stop offset="1" stop-color="#223A6B"/>
</linearGradient>
<linearGradient id="paint13_linear_0_1" x1="-86.0882" y1="482.978" x2="-82.8015" y2="571.722" gradientUnits="userSpaceOnUse">
<stop stop-color="#253C6B"/>
<stop offset="1" stop-color="#172A56"/>
</linearGradient>
<linearGradient id="paint14_linear_0_1" x1="105.468" y1="520.784" x2="105.468" y2="619.009" gradientUnits="userSpaceOnUse">
<stop stop-color="#253C6B"/>
<stop offset="1" stop-color="#172A56"/>
</linearGradient>
<linearGradient id="paint15_linear_0_1" x1="174.67" y1="1116.84" x2="174.67" y2="842.495" gradientUnits="userSpaceOnUse">
<stop stop-color="#253C6B"/>
<stop offset="1" stop-color="#172A56"/>
</linearGradient>
<clipPath id="clip0_0_1">
<rect width="356" height="1034" fill="white"/>
</clipPath>
</defs>
</svg>
