<svg width="360" height="800" viewBox="0 0 360 800" fill="none" xmlns="http://www.w3.org/2000/svg">
<rect width="360" height="800" fill="#F5F5F5"/>
<g clip-path="url(#clip0_0_1)">
<rect width="360" height="800" fill="white"/>
<path d="M559.407 967.957H-217.893C-234.893 967.957 -248.593 954.257 -248.593 937.257V-492.443C-248.593 -509.443 -234.893 -523.143 -217.893 -523.143H559.407C576.407 -523.143 590.107 -509.443 590.107 -492.443V937.257C590.107 954.257 576.407 967.957 559.407 967.957Z" fill="url(#paint0_linear_0_1)"/>
<path d="M283.932 170.459C243.887 170.459 211.405 137.976 211.405 97.9316C211.405 57.8869 243.887 25.4045 283.932 25.4045C323.976 25.4045 356.459 57.8869 356.459 97.9316C356.459 137.976 323.976 170.459 283.932 170.459ZM283.932 15C238.152 15 201 52.101 201 97.9316C201 143.762 238.101 180.863 283.932 180.863C329.762 180.863 366.863 143.762 366.863 97.9316C366.863 52.101 329.711 15 283.932 15Z" fill="url(#paint1_linear_0_1)"/>
<path d="M283.932 25.4045C243.887 25.4045 211.405 57.8869 211.405 97.9316C211.405 137.976 243.887 170.459 283.932 170.459C323.976 170.459 356.459 137.976 356.459 97.9316C356.459 57.8869 323.976 25.4045 283.932 25.4045Z" fill="url(#paint2_linear_0_1)"/>
<path d="M-22.6374 284.568C-22.6374 284.568 -19.3374 245.968 11.8626 229.468C43.0626 212.968 46.2626 197.968 54.5626 203.068C62.8626 208.068 100.663 219.568 105.563 229.468C110.463 239.368 125.263 286.268 135.163 306.368C145.063 326.468 177.763 370.768 193.463 369.168C209.163 367.568 227.263 372.468 232.163 383.968C237.063 395.468 263.363 440.968 269.963 451.068C276.563 461.168 305.763 513.768 304.263 518.668C302.763 523.568 331.163 592.668 331.163 592.668L230.563 636.968L15.4626 590.068C15.4626 590.068 -26.0374 494.868 -33.4374 485.168C-40.9374 475.468 -22.6374 284.568 -22.6374 284.568Z" fill="url(#paint3_linear_0_1)"/>
<path d="M-252.337 176.868C-252.337 176.868 -195.037 124.268 -183.437 127.568C-171.837 130.868 -133.037 112.768 -107.637 109.468C-82.2374 106.168 -58.9374 106.168 -28.7374 135.768C1.46262 165.368 -28.8374 166.968 -11.5374 222.868C5.7626 278.768 75.3626 383.868 87.6626 439.168C99.9626 494.568 135.763 607.268 150.263 614.768C164.663 622.168 484.763 647.368 484.763 647.368L171.863 785.268L-252.637 678.068L-252.337 176.868Z" fill="url(#paint4_linear_0_1)"/>
<path d="M-153.237 152.368C-145.237 169.168 -130.637 182.268 -129.137 188.168C-127.637 193.968 -121.137 160.368 -121.137 160.368C-121.137 160.368 -91.5374 158.868 -85.1374 160.368C-78.7374 161.868 -71.4374 137.768 -61.9374 136.968C-52.4374 136.168 -37.8374 161.768 -41.4374 177.868C-45.1374 193.968 -24.7374 236.268 -35.2374 239.968C-45.8374 243.668 -90.3374 253.868 -80.8374 257.468C-71.3374 261.168 -39.9374 247.268 -27.5374 251.668C-15.1374 256.068 29.9626 312.168 30.0626 312.268C12.4626 278.668 -4.13741 246.368 -11.4374 222.868C-28.7374 166.968 1.56258 165.368 -28.6374 135.768C-58.8374 106.168 -82.2374 106.168 -107.537 109.468C-132.837 112.768 -171.737 130.868 -183.337 127.568C-188.137 126.168 -200.637 134.368 -213.737 144.368C-213.837 144.468 -161.337 135.568 -153.237 152.368Z" fill="#AD6CA1"/>
<path d="M40.2626 232.668C45.0626 225.568 53.2626 212.368 58.2626 218.468C63.1626 224.468 82.3626 217.868 80.7626 235.668C79.1626 253.468 75.2626 262.768 86.7626 249.668C98.2626 236.568 105.363 255.168 110.363 269.368C115.363 283.568 130.663 326.868 107.063 333.468C83.4626 340.068 97.2626 337.668 125.463 343.268C153.663 348.768 166.263 371.468 172.363 366.868C178.463 362.268 188.663 380.568 186.563 386.568C185.563 389.468 192.363 379.368 201.063 368.868C198.563 368.768 196.063 368.868 193.563 369.168C177.863 370.768 145.163 326.468 135.263 306.368C125.363 286.268 110.563 239.368 105.663 229.468C100.763 219.568 62.9626 208.068 54.6626 203.068C46.3626 198.068 43.2626 213.068 11.9626 229.468C11.3626 229.768 10.6626 230.168 10.0626 230.568C10.2626 233.868 11.8626 236.168 16.5626 234.868C28.5626 231.568 35.4626 239.768 40.2626 232.668Z" fill="#C1809A"/>
<path d="M586.463 405.868C581.663 405.568 576.863 405.468 572.063 405.368C556.163 405.268 540.263 405.368 524.363 406.568C491.463 409.168 459.763 417.168 432.463 436.268C420.463 444.668 409.263 454.268 398.363 464.068C393.163 468.668 388.063 473.368 382.863 477.868C380.263 480.168 377.663 482.368 374.963 484.568C373.663 485.668 372.363 486.768 370.963 487.868C370.163 488.468 369.363 489.168 368.563 489.768C368.363 489.968 368.063 490.168 367.763 490.368C362.763 494.068 357.563 497.668 352.163 500.868C349.163 502.668 346.163 504.268 342.963 505.868C338.363 508.168 338.163 508.268 333.363 510.068C318.663 515.568 303.263 518.868 287.963 521.968C273.063 524.968 258.163 527.568 243.563 531.668C227.163 536.168 211.763 543.068 196.263 549.668C185.763 554.168 168.363 560.568 156.463 562.368C139.163 564.968 121.163 563.268 103.863 561.768C68.9626 558.768 34.2626 557.468 -0.637436 560.068C-16.5374 561.268 -32.4374 563.168 -48.1374 565.568C-54.1374 563.468 -60.7374 562.868 -67.4374 563.868C-84.8374 566.668 -95.5374 582.168 -96.8374 598.968C-99.4374 633.768 -64.6374 652.468 -42.5374 672.668C-18.3374 694.668 4.36256 717.868 31.3626 736.768C56.8626 754.568 84.6626 768.468 113.563 779.668C173.763 802.968 238.863 811.968 303.263 812.768C338.363 813.168 373.463 811.168 408.363 807.768C443.463 804.468 478.763 800.668 513.463 794.568C538.563 790.168 563.963 783.068 586.463 770.568V405.868ZM-59.4374 597.968H-59.5374C-59.3374 597.968 -59.2374 597.968 -59.2374 597.968C-59.2374 597.968 -59.3374 597.968 -59.4374 597.968Z" fill="url(#paint5_linear_0_1)"/>
<path d="M283.563 552.568C277.863 553.068 268.263 539.468 268.263 539.468C272.863 545.668 277.763 543.768 277.763 543.768C275.663 543.668 272.763 541.668 270.863 540.068C275.663 543.368 281.663 541.668 281.663 541.668C276.263 541.468 271.463 534.668 271.463 534.668C276.063 538.468 283.463 537.968 283.463 537.968C279.063 537.168 271.063 533.168 265.863 530.268C272.363 531.968 282.063 531.368 282.063 531.368C265.563 528.468 259.463 519.868 259.463 519.868C262.363 522.868 272.163 524.368 273.663 524.568C271.263 524.168 266.963 522.168 263.763 520.568C267.863 521.868 273.063 522.068 273.063 522.068C268.263 521.168 263.363 515.768 260.763 512.468C265.863 518.168 272.363 516.768 272.363 516.768C267.263 516.268 262.063 508.568 259.363 503.868C261.763 507.368 264.163 507.268 264.163 507.268C261.963 506.868 259.763 500.568 259.763 500.568C264.463 508.368 271.563 507.868 271.563 507.868C265.663 507.368 259.863 498.668 259.863 498.668C263.563 503.768 270.063 501.468 270.063 501.468C262.763 500.968 258.263 489.568 258.263 489.568C260.463 492.468 265.263 492.568 266.663 492.468C264.563 492.468 262.563 491.468 261.063 490.468C264.463 492.068 269.063 491.168 269.063 491.168C265.263 490.968 259.563 481.868 259.563 481.868C262.963 484.668 267.163 482.868 267.163 482.868C262.963 482.768 259.163 477.068 259.163 477.068C261.963 480.768 267.163 479.668 267.163 479.668C261.463 479.768 256.263 470.668 256.263 470.668C258.463 474.368 261.763 472.868 261.763 472.868C257.963 472.768 256.063 468.568 256.063 468.568C258.963 472.268 264.463 470.268 264.463 470.268C255.663 468.468 253.763 461.968 253.763 461.968C256.763 466.168 261.763 464.468 261.763 464.468C256.563 465.168 253.763 460.968 253.763 460.968C257.263 465.768 264.663 462.968 264.663 462.968C257.563 463.368 253.363 455.768 253.363 455.768C254.663 457.568 257.063 456.868 257.063 456.868C255.063 457.268 251.863 452.568 251.863 452.568C254.763 456.068 260.063 453.668 260.063 453.668C255.263 455.268 245.963 441.068 245.963 441.068C245.963 441.068 236.663 455.268 231.863 453.668C231.863 453.668 237.163 456.168 240.063 452.568C240.063 452.568 236.863 457.268 234.863 456.868C234.863 456.868 237.263 457.568 238.563 455.768C238.563 455.768 234.363 463.368 227.263 462.968C227.263 462.968 234.763 465.768 238.163 460.968C238.163 460.968 235.363 465.168 230.163 464.468C230.163 464.468 235.163 466.268 238.163 461.968C238.163 461.968 236.163 468.468 227.463 470.268C227.463 470.268 232.963 472.368 235.863 468.568C235.863 468.568 234.063 472.768 230.163 472.868C230.163 472.868 233.463 474.368 235.663 470.668C235.663 470.668 230.363 479.768 224.763 479.668C224.763 479.668 229.863 480.768 232.763 477.068C232.763 477.068 229.063 482.868 224.763 482.868C224.763 482.868 228.963 484.668 232.363 481.868C232.363 481.868 226.663 491.068 222.863 491.168C222.863 491.168 227.463 492.068 230.863 490.468C229.363 491.468 227.363 492.568 225.263 492.468C226.663 492.568 231.463 492.468 233.663 489.568C233.663 489.568 229.063 500.968 221.863 501.468C221.863 501.468 228.363 503.768 232.063 498.668C232.063 498.668 226.263 507.368 220.363 507.868C220.363 507.868 227.363 508.468 232.163 500.568C232.163 500.568 229.963 506.868 227.763 507.268C227.763 507.268 230.063 507.268 232.563 503.868C229.863 508.668 224.663 516.268 219.563 516.768C219.563 516.768 225.963 518.168 231.163 512.468C228.563 515.768 223.663 521.168 218.863 522.068C218.863 522.068 223.963 521.868 228.163 520.568C224.963 522.168 220.663 524.168 218.263 524.568C219.763 524.368 229.563 522.868 232.463 519.868C232.463 519.868 226.363 528.468 209.863 531.368C209.863 531.368 219.463 531.968 226.063 530.268C220.763 533.168 212.863 537.168 208.463 537.968C208.463 537.968 215.863 538.468 220.463 534.668C220.463 534.668 215.763 541.368 210.263 541.668C210.263 541.668 216.163 543.368 221.063 540.068C219.163 541.668 216.263 543.668 214.163 543.768C214.163 543.768 219.063 545.668 223.663 539.468C223.663 539.468 214.063 553.068 208.363 552.568C208.363 552.568 216.263 553.368 222.363 549.768C220.663 551.568 218.863 553.368 217.063 554.768H245.263H246.763H274.963C273.263 553.368 271.363 551.568 269.663 549.768C275.663 553.468 283.563 552.568 283.563 552.568Z" fill="url(#paint6_linear_0_1)"/>
<path d="M281.563 538.368C277.163 541.068 268.463 546.068 263.763 545.968C263.763 545.968 265.163 546.168 267.263 546.368H342.863C344.963 546.168 346.363 545.968 346.363 545.968C341.663 546.068 332.963 541.068 328.563 538.368C334.763 540.568 347.063 538.768 347.063 538.768C343.963 538.068 340.463 536.368 337.063 534.168C338.463 534.068 339.463 533.768 339.463 533.768C337.563 533.568 335.163 532.568 333.263 531.568C331.063 529.968 328.863 528.268 326.963 526.668C330.063 527.668 333.963 527.168 333.963 527.168C331.963 526.768 330.463 525.968 329.463 524.968C332.963 524.868 335.763 523.468 335.763 523.468C330.763 521.268 327.763 517.668 327.763 517.668C331.463 520.768 341.363 517.068 341.363 517.068C331.963 516.268 322.063 507.368 318.163 503.568C321.763 506.268 325.963 504.868 325.963 504.868C319.563 505.268 316.063 496.268 316.063 496.268C321.563 504.368 336.563 500.268 336.563 500.268C324.363 500.768 315.563 482.568 315.563 482.568C321.563 489.668 332.163 485.668 332.163 485.668C321.963 485.468 319.563 476.768 319.563 476.768C322.963 478.368 324.163 477.268 324.163 477.268C320.263 477.368 317.363 472.968 317.363 472.968C323.463 478.168 331.363 473.368 331.363 473.368C325.263 474.668 318.063 462.568 318.063 462.568C320.963 464.768 326.363 462.568 326.363 462.568C323.863 463.168 319.163 460.568 315.963 458.568C322.463 461.568 331.363 459.468 331.363 459.468C320.763 458.068 314.863 450.268 314.863 450.268C318.663 451.868 321.263 450.968 321.263 450.968C313.563 450.868 310.763 444.068 310.763 444.068C311.763 445.468 317.063 445.668 317.063 445.668C315.463 445.668 312.463 443.068 312.463 443.068C316.563 444.968 323.363 443.368 323.363 443.368C309.863 443.368 307.463 430.668 309.363 432.768C311.263 434.968 313.963 433.268 313.963 433.268C308.963 431.068 306.663 424.368 305.563 418.868V411.268C305.563 411.268 305.563 413.268 305.163 416.168C304.763 413.268 304.763 411.268 304.763 411.268V418.868C303.663 424.368 301.463 431.068 296.363 433.268C296.363 433.268 299.163 434.868 300.963 432.768C302.863 430.568 300.463 443.368 286.963 443.368C286.963 443.368 293.763 444.968 297.863 443.068C297.863 443.068 294.863 445.668 293.263 445.668C293.263 445.668 298.463 445.568 299.563 444.068C299.563 444.068 296.863 450.768 289.063 450.968C289.063 450.968 291.663 451.768 295.463 450.268C295.463 450.268 289.563 457.968 278.963 459.468C278.963 459.468 287.863 461.668 294.363 458.568C291.163 460.568 286.463 463.168 283.963 462.568C283.963 462.568 289.363 464.768 292.263 462.568C292.263 462.568 285.163 474.768 278.963 473.368C278.963 473.368 286.763 478.168 292.963 472.968C292.963 472.968 290.063 477.468 286.163 477.268C286.163 477.268 287.363 478.368 290.763 476.768C290.763 476.768 288.363 485.468 278.163 485.668C278.163 485.668 288.763 489.668 294.763 482.568C294.763 482.568 285.863 500.768 273.763 500.268C273.763 500.268 288.763 504.368 294.263 496.268C294.263 496.268 290.763 505.168 284.363 504.868C284.363 504.868 288.563 506.268 292.163 503.568C288.263 507.368 278.363 516.268 268.963 517.068C268.963 517.068 278.863 520.768 282.563 517.668C282.563 517.668 279.563 521.168 274.563 523.468C274.563 523.468 277.363 524.868 280.863 524.968C279.863 525.868 278.363 526.768 276.363 527.168C276.363 527.168 280.163 527.668 283.363 526.668C281.463 528.268 279.363 529.968 277.063 531.568C275.163 532.468 272.763 533.468 270.863 533.768C270.863 533.768 271.763 534.168 273.263 534.168C269.863 536.368 266.363 538.068 263.263 538.768C263.063 538.868 275.463 540.568 281.563 538.368ZM286.063 543.568C286.063 543.568 286.063 543.668 285.963 543.768C285.963 543.668 286.063 543.568 286.063 543.568Z" fill="url(#paint7_linear_0_1)"/>
<path d="M145.963 579.268C141.063 582.268 131.363 587.868 126.063 587.768C126.063 587.768 127.663 587.968 129.963 588.268H214.463C216.863 588.068 218.363 587.768 218.363 587.768C213.063 587.868 203.363 582.368 198.463 579.268C205.363 581.768 219.163 579.768 219.163 579.768C215.663 578.968 211.763 577.068 207.963 574.568C209.563 574.468 210.563 574.068 210.563 574.068C208.463 573.768 205.763 572.668 203.663 571.668C201.163 569.868 198.763 567.968 196.663 566.168C200.163 567.268 204.463 566.768 204.463 566.768C202.263 566.368 200.563 565.368 199.463 564.368C203.363 564.268 206.463 562.668 206.463 562.668C200.963 560.168 197.563 556.168 197.563 556.168C201.663 559.668 212.763 555.468 212.763 555.468C202.263 554.568 191.163 544.668 186.863 540.368C190.863 543.468 195.563 541.868 195.563 541.868C188.363 542.268 184.463 532.268 184.463 532.268C190.563 541.268 207.363 536.668 207.363 536.668C193.763 537.168 183.863 516.868 183.863 516.868C190.563 524.768 202.463 520.368 202.463 520.368C191.063 520.068 188.463 510.368 188.463 510.368C192.263 512.168 193.563 510.868 193.563 510.868C189.163 510.968 185.963 506.068 185.963 506.068C192.863 511.868 201.563 506.468 201.563 506.468C194.663 507.968 186.663 494.368 186.663 494.368C189.963 496.768 195.963 494.368 195.963 494.368C193.163 495.068 187.863 492.168 184.363 489.868C191.663 493.268 201.563 490.868 201.563 490.868C189.763 489.268 183.163 480.668 183.163 480.668C187.363 482.468 190.363 481.468 190.363 481.468C181.763 481.368 178.663 473.768 178.663 473.768C179.863 475.368 185.663 475.568 185.663 475.568C183.863 475.568 180.563 472.568 180.563 472.568C185.163 474.668 192.763 472.868 192.763 472.868C177.663 472.868 174.963 458.668 177.063 461.068C179.163 463.468 182.263 461.668 182.263 461.668C176.663 459.268 174.063 451.668 172.963 445.568V437.068C172.963 437.068 172.863 439.368 172.463 442.568C172.063 439.368 171.963 437.068 171.963 437.068V445.568C170.763 451.668 168.263 459.268 162.663 461.668C162.663 461.668 165.763 463.468 167.863 461.068C169.963 458.668 167.263 472.868 152.163 472.868C152.163 472.868 159.763 474.668 164.363 472.568C164.363 472.568 160.963 475.568 159.263 475.568C159.263 475.568 165.063 475.468 166.263 473.768C166.263 473.768 163.163 481.268 154.563 481.468C154.563 481.468 157.463 482.368 161.763 480.668C161.763 480.668 155.163 489.268 143.363 490.868C143.363 490.868 153.263 493.268 160.563 489.868C156.963 492.068 151.663 494.968 148.963 494.368C148.963 494.368 154.963 496.768 158.263 494.368C158.263 494.368 150.263 507.968 143.363 506.468C143.363 506.468 152.163 511.868 158.963 506.068C158.963 506.068 155.763 511.068 151.363 510.868C151.363 510.868 152.663 512.068 156.463 510.368C156.463 510.368 153.863 520.068 142.463 520.368C142.463 520.368 154.263 524.768 161.063 516.868C161.063 516.868 151.163 537.168 137.563 536.668C137.563 536.668 154.363 541.268 160.463 532.268C160.463 532.268 156.563 542.268 149.363 541.868C149.363 541.868 154.063 543.468 158.063 540.368C153.763 544.668 142.663 554.568 132.163 555.468C132.163 555.468 143.263 559.668 147.363 556.168C147.363 556.168 143.963 560.168 138.463 562.668C138.463 562.668 141.563 564.168 145.463 564.368C144.363 565.368 142.663 566.368 140.463 566.768C140.463 566.768 144.763 567.268 148.263 566.168C146.163 567.968 143.763 569.868 141.263 571.668C139.163 572.768 136.463 573.768 134.363 574.068C134.363 574.068 135.363 574.468 136.963 574.568C133.163 576.968 129.263 578.968 125.763 579.768C125.363 579.768 139.063 581.768 145.963 579.268ZM193.563 585.268C193.463 585.068 193.363 585.068 193.363 585.068C193.463 585.068 193.463 585.168 193.563 585.268ZM151.063 584.968C151.063 584.968 151.063 585.068 150.963 585.168C150.963 585.168 150.963 585.068 151.063 584.968Z" fill="url(#paint8_linear_0_1)"/>
<path d="M40.2626 549.968C29.2626 550.868 10.9626 524.868 10.9626 524.868C19.8626 536.768 29.2626 533.168 29.2626 533.168C25.1626 533.068 19.6626 529.168 15.9626 526.168C25.2626 532.468 36.6626 529.168 36.6626 529.168C26.2626 528.668 17.1626 515.768 17.1626 515.768C25.9626 522.968 40.1626 522.068 40.1626 522.068C31.6626 520.568 16.4625 512.768 6.36255 507.268C18.8625 510.568 37.3625 509.368 37.3625 509.368C5.66255 503.768 -5.93744 487.268 -5.93744 487.268C-0.337439 493.068 18.4625 495.968 21.3625 496.368C16.8625 495.668 8.46255 491.768 2.36255 488.668C10.2625 491.268 20.1626 491.568 20.1626 491.568C10.9626 489.768 1.56256 479.568 -3.43744 473.168C6.46256 484.068 18.7626 481.368 18.7626 481.368C8.86257 480.268 -0.937427 465.768 -6.23743 456.568C-1.53743 463.168 2.96255 463.068 2.96255 463.068C-1.13744 462.268 -5.43744 450.168 -5.43744 450.168C3.66256 465.268 17.1626 464.168 17.1626 464.168C5.76257 463.268 -5.23743 446.468 -5.23743 446.468C1.86257 456.268 14.2626 451.868 14.2626 451.868C0.262573 450.968 -8.43744 428.968 -8.43744 428.968C-4.13744 434.568 4.96257 434.668 7.66257 434.568C3.76257 434.668 -0.237445 432.668 -3.03745 430.668C3.46255 433.768 12.3625 432.068 12.3625 432.068C5.16255 431.768 -5.83743 414.168 -5.83743 414.168C0.662567 419.568 8.66257 416.068 8.66257 416.068C0.562567 415.968 -6.63745 404.868 -6.63745 404.868C-1.23745 412.068 8.66257 409.868 8.66257 409.868C-2.23743 410.068 -12.3374 392.668 -12.3374 392.668C-8.13743 399.768 -1.83743 396.868 -1.83743 396.868C-9.23743 396.768 -12.7374 388.668 -12.7374 388.668C-7.23743 395.868 3.46255 391.868 3.46255 391.868C-13.3374 388.468 -17.1375 375.968 -17.1375 375.968C-11.4375 384.068 -1.73743 380.668 -1.73743 380.668C-11.7374 381.968 -17.1375 373.868 -17.1375 373.868C-10.4375 383.068 3.86255 377.768 3.86255 377.768C-9.73745 378.568 -17.7374 363.968 -17.7374 363.968C-15.2374 367.368 -10.6375 365.968 -10.6375 365.968C-14.4375 366.668 -20.5374 357.668 -20.5374 357.668C-15.0374 364.468 -4.73743 359.668 -4.73743 359.668C-13.9374 362.768 -31.7374 335.568 -31.7374 335.568C-31.7374 335.568 -49.5374 362.768 -58.7374 359.668C-58.7374 359.668 -48.5374 364.368 -42.9374 357.668C-42.9374 357.668 -49.0374 366.668 -52.8374 365.968C-52.8374 365.968 -48.2374 367.268 -45.7374 363.968C-45.7374 363.968 -53.7374 378.568 -67.3374 377.768C-67.3374 377.768 -53.0374 383.068 -46.3374 373.868C-46.3374 373.868 -51.6374 381.968 -61.7374 380.668C-61.7374 380.668 -52.1374 384.068 -46.3374 375.968C-46.3374 375.968 -50.1374 388.468 -66.9374 391.868C-66.9374 391.868 -56.3374 395.868 -50.7374 388.668C-50.7374 388.668 -54.2375 396.768 -61.6375 396.868C-61.6375 396.868 -55.3375 399.768 -51.1375 392.668C-51.1375 392.668 -61.2375 410.068 -72.1375 409.868C-72.1375 409.868 -62.3374 412.068 -56.8374 404.868C-56.8374 404.868 -64.0375 415.968 -72.1375 416.068C-72.1375 416.068 -64.0375 419.568 -57.6375 414.168C-57.6375 414.168 -68.6374 431.768 -75.8374 432.068C-75.8374 432.068 -66.9374 433.768 -60.4374 430.668C-63.3374 432.668 -67.2375 434.668 -71.1375 434.568C-68.4375 434.668 -59.3374 434.568 -55.0374 428.968C-55.0374 428.968 -63.8374 450.968 -77.7374 451.868C-77.7374 451.868 -65.3374 456.368 -58.2374 446.468C-58.2374 446.468 -69.3375 463.168 -80.6375 464.168C-80.6375 464.168 -67.1374 465.268 -58.0374 450.168C-58.0374 450.168 -62.3374 462.268 -66.4374 463.068C-66.4374 463.068 -61.9374 463.168 -57.2374 456.568C-62.4374 465.668 -72.3374 480.268 -82.2374 481.368C-82.2374 481.368 -69.9374 484.068 -60.0374 473.168C-65.0374 479.468 -74.4375 489.768 -83.6375 491.568C-83.6375 491.568 -73.8374 491.268 -65.8374 488.668C-71.9374 491.768 -80.3374 495.668 -84.8374 496.368C-81.9374 495.968 -63.2374 493.068 -57.5374 487.268C-57.5374 487.268 -69.1374 503.768 -100.837 509.368C-100.837 509.368 -82.3374 510.568 -69.8374 507.268C-79.9374 512.768 -95.1375 520.568 -103.637 522.068C-103.637 522.068 -89.3375 522.968 -80.6375 515.768C-80.6375 515.768 -89.7375 528.668 -100.137 529.168C-100.137 529.168 -88.7374 532.468 -79.4374 526.168C-83.1374 529.168 -88.6374 533.068 -92.7374 533.168C-92.7374 533.168 -83.3374 536.768 -74.4374 524.868C-74.4374 524.868 -92.7374 550.968 -103.737 549.968C-103.737 549.968 -88.5374 551.568 -76.8374 544.568C-80.0374 547.968 -83.6374 551.468 -86.9374 554.168H-32.8374H-29.9374H24.1626C20.8626 551.468 17.2626 547.968 14.0626 544.568C25.0626 551.568 40.2626 549.968 40.2626 549.968Z" fill="url(#paint9_linear_0_1)"/>
<path d="M105.563 593.868C98.8626 598.068 85.5626 605.668 78.2626 605.468C78.2626 605.468 80.3626 605.768 83.6626 606.068H199.463C202.663 605.768 204.863 605.468 204.863 605.468C197.563 605.568 184.263 597.968 177.563 593.868C186.963 597.268 205.963 594.568 205.963 594.568C201.263 593.468 195.863 590.868 190.563 587.468C192.763 587.368 194.163 586.868 194.163 586.868C191.263 586.468 187.663 584.968 184.763 583.568C181.363 581.068 178.063 578.468 175.163 576.068C179.963 577.668 185.863 576.868 185.863 576.868C182.763 576.368 180.563 574.968 178.963 573.568C184.263 573.368 188.563 571.268 188.563 571.268C180.963 567.868 176.363 562.368 176.363 562.368C181.963 567.168 197.163 561.468 197.163 561.468C182.763 560.168 167.563 546.568 161.563 540.768C166.963 544.968 173.463 542.768 173.463 542.768C163.663 543.368 158.263 529.668 158.263 529.668C166.663 542.068 189.763 535.768 189.763 535.768C171.163 536.468 157.463 508.568 157.463 508.568C166.663 519.468 182.963 513.368 182.963 513.368C167.363 512.968 163.763 499.668 163.763 499.668C168.963 502.068 170.763 500.368 170.763 500.368C164.763 500.568 160.363 493.768 160.363 493.768C169.763 501.668 181.763 494.368 181.763 494.368C172.363 496.368 161.363 477.768 161.363 477.768C165.863 481.068 174.163 477.768 174.163 477.768C170.363 478.668 163.063 474.768 158.263 471.668C168.263 476.268 181.863 472.968 181.863 472.968C165.663 470.768 156.563 458.968 156.563 458.968C162.363 461.368 166.363 460.068 166.363 460.068C154.563 459.868 150.363 449.568 150.363 449.568C151.963 451.768 159.963 451.968 159.963 451.968C157.563 451.968 152.963 447.868 152.963 447.868C159.263 450.768 169.663 448.268 169.663 448.268C148.963 448.268 145.363 428.768 148.163 432.068C150.963 435.368 155.263 432.868 155.263 432.868C147.563 429.568 144.063 419.168 142.463 410.768V399.168C142.463 399.168 142.363 402.268 141.763 406.668C141.163 402.268 141.063 399.168 141.063 399.168V410.768C139.463 419.168 135.963 429.568 128.263 432.868C128.263 432.868 132.463 435.368 135.363 432.068C138.163 428.768 134.563 448.268 113.863 448.268C113.863 448.268 124.263 450.768 130.563 447.868C130.563 447.868 125.963 451.968 123.563 451.968C123.563 451.968 131.563 451.768 133.163 449.568C133.163 449.568 128.963 459.868 117.163 460.068C117.163 460.068 121.163 461.368 126.963 458.968C126.963 458.968 117.963 470.768 101.663 472.968C101.663 472.968 115.263 476.268 125.263 471.668C120.363 474.768 113.063 478.668 109.363 477.768C109.363 477.768 117.663 481.068 122.163 477.768C122.163 477.768 111.163 496.468 101.763 494.368C101.763 494.368 113.763 501.768 123.163 493.768C123.163 493.768 118.763 500.568 112.763 500.368C112.763 500.368 114.563 502.068 119.763 499.668C119.763 499.668 116.163 512.968 100.563 513.368C100.563 513.368 116.763 519.468 126.063 508.568C126.063 508.568 112.463 536.468 93.7626 535.768C93.7626 535.768 116.763 542.068 125.263 529.668C125.263 529.668 119.863 543.368 110.063 542.768C110.063 542.768 116.563 544.968 121.963 540.768C116.063 546.568 100.763 560.168 86.3626 561.468C86.3626 561.468 101.563 567.168 107.163 562.368C107.163 562.368 102.563 567.768 94.9626 571.268C94.9626 571.268 99.1626 573.368 104.563 573.568C102.963 574.968 100.763 576.368 97.6626 576.868C97.6626 576.868 103.563 577.568 108.363 576.068C105.463 578.468 102.163 581.068 98.7626 583.568C95.8626 584.968 92.2626 586.468 89.3626 586.868C89.3626 586.868 90.7626 587.468 92.9626 587.468C87.6626 590.768 82.3626 593.468 77.5626 594.568C77.1626 594.568 96.0626 597.268 105.563 593.868ZM170.763 602.068C170.563 601.868 170.563 601.768 170.563 601.768C170.563 601.868 170.663 601.968 170.763 602.068ZM112.463 601.768C112.463 601.768 112.363 601.868 112.263 602.068C112.263 601.968 112.363 601.868 112.463 601.768Z" fill="url(#paint10_linear_0_1)"/>
<path d="M586.463 471.568C578.663 470.868 570.963 470.668 563.263 471.068C562.763 470.968 562.363 470.768 561.863 470.668C557.563 469.568 552.763 470.268 548.863 472.268C512.963 476.768 478.163 491.268 446.163 507.768C425.163 518.568 404.663 530.468 383.663 541.268C361.963 552.468 343.163 561.068 319.663 567.568C308.063 570.768 296.263 573.268 284.363 574.968C275.863 576.168 261.163 577.268 250.263 577.568C238.163 577.868 226.163 577.568 214.063 576.768C208.363 576.368 202.663 575.868 196.963 575.268C190.463 574.568 185.463 573.968 180.463 573.268C131.163 566.168 83.2626 552.668 35.3625 539.468C-14.6375 525.668 -65.0374 512.568 -116.737 506.768C-141.937 503.968 -167.337 503.068 -192.537 505.168C-212.437 506.768 -233.637 509.168 -252.237 517.168V927.068C-252.237 945.668 -237.137 960.668 -218.637 960.668H552.863C571.463 960.668 586.463 945.568 586.463 927.068V471.568Z" fill="url(#paint11_linear_0_1)"/>
<path d="M435.263 599.668C424.263 600.568 405.963 574.568 405.963 574.568C414.863 586.468 424.263 582.868 424.263 582.868C420.163 582.768 414.663 578.868 410.963 575.868C420.263 582.168 431.663 578.868 431.663 578.868C421.263 578.368 412.163 565.468 412.163 565.468C420.963 572.668 435.163 571.768 435.163 571.768C426.663 570.268 411.463 562.468 401.363 556.968C413.863 560.268 432.363 559.068 432.363 559.068C400.663 553.468 389.063 536.968 389.063 536.968C394.663 542.768 413.463 545.668 416.363 546.068C411.863 545.368 403.463 541.468 397.363 538.368C405.263 540.968 415.163 541.268 415.163 541.268C405.963 539.468 396.563 529.268 391.563 522.868C401.463 533.768 413.763 531.068 413.763 531.068C403.863 529.968 394.063 515.468 388.763 506.268C393.463 512.868 397.963 512.768 397.963 512.768C393.863 511.968 389.563 499.868 389.563 499.868C398.663 514.968 412.163 513.868 412.163 513.868C400.763 512.968 389.763 496.168 389.763 496.168C396.863 505.968 409.263 501.568 409.263 501.568C395.263 500.668 386.563 478.668 386.563 478.668C390.863 484.268 399.963 484.368 402.663 484.268C398.763 484.368 394.763 482.368 391.963 480.368C398.463 483.468 407.363 481.768 407.363 481.768C400.163 481.468 389.163 463.868 389.163 463.868C395.663 469.268 403.663 465.768 403.663 465.768C395.563 465.668 388.363 454.568 388.363 454.568C393.763 461.768 403.663 459.568 403.663 459.568C392.763 459.768 382.663 442.368 382.663 442.368C386.863 449.468 393.163 446.568 393.163 446.568C385.763 446.468 382.263 438.368 382.263 438.368C387.763 445.568 398.463 441.568 398.463 441.568C381.663 438.168 377.863 425.668 377.863 425.668C383.563 433.768 393.263 430.368 393.263 430.368C383.263 431.668 377.863 423.568 377.863 423.568C384.563 432.768 398.863 427.468 398.863 427.468C385.263 428.268 377.263 413.668 377.263 413.668C379.763 417.068 384.363 415.668 384.363 415.668C380.563 416.368 374.463 407.368 374.463 407.368C379.963 414.168 390.263 409.368 390.263 409.368C381.063 412.468 363.263 385.268 363.263 385.268C363.263 385.268 345.463 412.468 336.263 409.368C336.263 409.368 346.463 414.068 352.063 407.368C352.063 407.368 345.963 416.368 342.163 415.668C342.163 415.668 346.763 416.968 349.263 413.668C349.263 413.668 341.263 428.268 327.663 427.468C327.663 427.468 341.963 432.768 348.663 423.568C348.663 423.568 343.363 431.668 333.263 430.368C333.263 430.368 342.863 433.768 348.663 425.668C348.663 425.668 344.863 438.168 328.063 441.568C328.063 441.568 338.663 445.568 344.263 438.368C344.263 438.368 340.763 446.468 333.363 446.568C333.363 446.568 339.663 449.468 343.863 442.368C343.863 442.368 333.763 459.768 322.863 459.568C322.863 459.568 332.663 461.768 338.163 454.568C338.163 454.568 330.963 465.668 322.863 465.768C322.863 465.768 330.963 469.268 337.363 463.868C337.363 463.868 326.363 481.468 319.163 481.768C319.163 481.768 328.063 483.468 334.563 480.368C331.663 482.368 327.763 484.368 323.863 484.268C326.563 484.368 335.663 484.268 339.963 478.668C339.963 478.668 331.163 500.668 317.263 501.568C317.263 501.568 329.663 506.068 336.763 496.168C336.763 496.168 325.663 512.868 314.363 513.868C314.363 513.868 327.863 514.968 336.963 499.868C336.963 499.868 332.663 511.968 328.563 512.768C328.563 512.768 333.063 512.868 337.763 506.268C332.563 515.368 322.663 529.968 312.763 531.068C312.763 531.068 325.063 533.768 334.963 522.868C329.963 529.168 320.563 539.468 311.363 541.268C311.363 541.268 321.163 540.968 329.163 538.368C323.063 541.468 314.663 545.368 310.163 546.068C313.063 545.668 331.763 542.768 337.463 536.968C337.463 536.968 325.863 553.468 294.163 559.068C294.163 559.068 312.663 560.268 325.163 556.968C315.063 562.468 299.863 570.268 291.363 571.768C291.363 571.768 305.663 572.668 314.363 565.468C314.363 565.468 305.263 578.368 294.863 578.868C294.863 578.868 306.263 582.168 315.563 575.868C311.863 578.868 306.363 582.768 302.263 582.868C302.263 582.868 311.663 586.468 320.563 574.568C320.563 574.568 302.263 600.668 291.263 599.668C291.263 599.668 306.463 601.268 318.163 594.268C314.963 597.668 311.363 601.168 308.063 603.868H362.163H365.063H419.163C415.863 601.168 412.263 597.668 409.063 594.268C420.063 601.268 435.263 599.668 435.263 599.668Z" fill="url(#paint12_linear_0_1)"/>
<path d="M35.5626 641.968C17.2626 643.468 -13.3374 600.068 -13.3374 600.068C1.46257 619.868 17.1626 613.868 17.1626 613.868C10.3626 613.668 1.06255 607.168 -5.03745 602.168C10.4626 612.768 29.4626 607.268 29.4626 607.268C12.0626 606.468 -3.03745 584.968 -3.03745 584.968C11.5626 596.968 35.3625 595.468 35.3625 595.468C21.1625 592.868 -4.13745 579.968 -21.0374 570.768C-0.137445 576.268 30.7626 574.268 30.7626 574.268C-22.1374 564.868 -41.5374 537.368 -41.5374 537.368C-32.1374 547.068 -0.837445 551.868 3.96255 552.568C-3.63744 551.368 -17.5374 544.868 -27.7374 539.668C-14.5374 543.968 1.86255 544.468 1.86255 544.468C-13.5375 541.468 -29.1374 524.368 -37.5374 513.768C-21.1374 531.968 -0.537445 527.568 -0.537445 527.568C-17.0374 525.768 -33.4375 501.468 -42.1375 486.268C-34.3375 497.368 -26.8374 497.168 -26.8374 497.168C-33.7374 495.868 -40.9374 475.668 -40.9374 475.668C-25.8374 500.768 -3.23743 498.968 -3.23743 498.968C-22.2374 497.468 -40.6375 469.468 -40.6375 469.468C-28.8375 485.868 -8.13745 478.468 -8.13745 478.468C-31.4375 476.968 -46.0374 440.268 -46.0374 440.268C-38.9374 449.568 -23.7375 449.768 -19.1375 449.568C-25.7375 449.668 -32.2374 446.368 -37.0374 443.068C-26.2374 448.268 -11.4374 445.468 -11.4374 445.468C-23.4374 444.968 -41.8374 415.568 -41.8374 415.568C-31.0374 424.668 -17.5374 418.768 -17.5374 418.768C-31.0374 418.568 -43.0374 400.168 -43.0374 400.168C-33.9374 412.168 -17.5374 408.568 -17.5374 408.568C-35.6374 408.868 -52.5374 379.868 -52.5374 379.868C-45.5374 391.668 -34.9374 386.868 -34.9374 386.868C-47.2374 386.668 -53.0374 373.168 -53.0374 373.168C-43.8374 385.168 -26.0374 378.468 -26.0374 378.468C-54.0374 372.868 -60.3374 351.968 -60.3374 351.968C-50.7374 365.468 -34.7374 359.868 -34.7374 359.868C-51.4374 362.068 -60.3374 348.568 -60.3374 348.568C-49.2374 363.968 -25.3374 355.068 -25.3374 355.068C-48.0374 356.468 -61.3374 331.968 -61.3374 331.968C-57.2374 337.568 -49.5374 335.368 -49.5374 335.368C-55.8374 336.568 -66.1375 321.568 -66.1375 321.568C-56.9375 332.868 -39.8374 324.968 -39.8374 324.968C-55.2374 330.068 -84.9374 284.768 -84.9374 284.768C-84.9374 284.768 -114.637 330.068 -130.037 324.968C-130.037 324.968 -112.937 332.868 -103.737 321.568C-103.737 321.568 -114.037 336.568 -120.337 335.368C-120.337 335.368 -112.637 337.568 -108.537 331.968C-108.537 331.968 -121.837 356.368 -144.537 355.068C-144.537 355.068 -120.637 363.968 -109.537 348.568C-109.537 348.568 -118.437 362.068 -135.137 359.868C-135.137 359.868 -119.037 365.468 -109.537 351.968C-109.537 351.968 -115.837 372.768 -143.837 378.468C-143.837 378.468 -126.037 385.168 -116.837 373.168C-116.837 373.168 -122.637 386.668 -134.937 386.868C-134.937 386.868 -124.337 391.668 -117.337 379.868C-117.337 379.868 -134.237 408.868 -152.337 408.568C-152.337 408.568 -135.937 412.168 -126.837 400.168C-126.837 400.168 -138.837 418.668 -152.337 418.768C-152.337 418.768 -138.837 424.568 -128.037 415.568C-128.037 415.568 -146.437 444.968 -158.437 445.468C-158.437 445.468 -143.637 448.268 -132.837 443.068C-137.637 446.368 -144.137 449.768 -150.737 449.568C-146.137 449.768 -131.037 449.568 -123.837 440.268C-123.837 440.268 -138.437 476.868 -161.737 478.468C-161.737 478.468 -140.937 485.868 -129.237 469.468C-129.237 469.468 -147.737 497.368 -166.637 498.968C-166.637 498.968 -144.037 500.768 -128.937 475.668C-128.937 475.668 -136.137 495.868 -143.037 497.168C-143.037 497.168 -135.537 497.368 -127.737 486.268C-136.437 501.468 -152.937 525.868 -169.337 527.568C-169.337 527.568 -148.837 532.068 -132.337 513.768C-140.737 524.368 -156.337 541.468 -171.737 544.468C-171.737 544.468 -155.337 543.968 -142.137 539.668C-152.337 544.868 -166.337 551.368 -173.837 552.568C-169.037 551.868 -137.737 547.068 -128.337 537.368C-128.337 537.368 -147.737 564.868 -200.637 574.268C-200.637 574.268 -169.737 576.368 -148.837 570.768C-165.637 579.968 -191.037 592.968 -205.237 595.468C-205.237 595.468 -181.437 596.968 -166.837 584.968C-166.837 584.968 -181.937 606.468 -199.337 607.268C-199.337 607.268 -180.337 612.768 -164.837 602.168C-170.937 607.168 -180.237 613.668 -187.037 613.868C-187.037 613.868 -171.337 619.868 -156.537 600.068C-156.537 600.068 -187.137 643.568 -205.437 641.968C-205.437 641.968 -180.137 644.568 -160.637 632.968C-166.037 638.668 -171.937 644.468 -177.537 648.968H-87.2374H-82.3374H7.56256C1.96256 644.468 -3.93743 638.568 -9.33743 632.968C10.2626 644.568 35.5626 641.968 35.5626 641.968Z" fill="url(#paint13_linear_0_1)"/>
<path d="M44.3626 638.368C34.3626 644.568 14.5626 655.868 3.6626 655.668C3.6626 655.668 6.8626 656.168 11.6626 656.568H184.063C188.863 656.068 192.063 655.668 192.063 655.668C181.263 655.868 161.363 644.568 151.363 638.368C165.463 643.468 193.563 639.368 193.563 639.368C186.463 637.768 178.563 633.768 170.663 628.868C173.863 628.768 176.063 627.868 176.063 627.868C171.763 627.368 166.363 625.068 161.963 622.968C156.863 619.268 151.963 615.468 147.663 611.868C154.763 614.168 163.563 613.068 163.563 613.068C158.963 612.268 155.663 610.268 153.363 608.168C161.363 607.868 167.663 604.768 167.663 604.768C156.363 599.668 149.463 591.568 149.463 591.568C157.863 598.668 180.463 590.168 180.463 590.168C158.963 588.268 136.363 568.068 127.463 559.368C135.563 565.668 145.263 562.368 145.263 562.368C130.663 563.168 122.563 542.868 122.563 542.868C135.063 561.268 169.363 551.968 169.363 551.968C141.663 553.068 121.363 511.568 121.363 511.568C135.063 527.768 159.263 518.668 159.263 518.668C135.963 518.168 130.663 498.368 130.663 498.368C138.463 501.968 141.063 499.468 141.063 499.468C132.163 499.768 125.563 489.568 125.563 489.568C139.563 501.368 157.463 490.368 157.463 490.368C143.463 493.368 127.163 465.668 127.163 465.668C133.863 470.568 146.163 465.668 146.163 465.668C140.563 467.068 129.663 461.168 122.463 456.568C137.363 463.468 157.563 458.568 157.563 458.568C133.363 455.268 119.963 437.668 119.963 437.668C128.663 441.268 134.563 439.268 134.563 439.268C116.963 438.968 110.663 423.568 110.663 423.568C113.063 426.868 124.963 427.168 124.963 427.168C121.363 427.168 114.563 421.168 114.563 421.168C123.963 425.468 139.363 421.768 139.363 421.768C108.463 421.768 103.163 392.668 107.363 397.668C111.563 402.568 117.863 398.868 117.863 398.868C106.463 393.968 101.163 378.468 98.7626 365.968V348.768C98.7626 348.768 98.6626 353.368 97.7626 359.968C96.8626 353.468 96.7626 348.768 96.7626 348.768V365.968C94.3626 378.468 89.1626 393.868 77.6626 398.868C77.6626 398.868 83.9626 402.568 88.1626 397.668C92.3626 392.768 87.0626 421.768 56.1626 421.768C56.1626 421.768 71.5626 425.468 80.9626 421.168C80.9626 421.168 74.1626 427.168 70.5626 427.168C70.5626 427.168 82.4626 426.868 84.8626 423.568C84.8626 423.568 78.5626 438.968 60.9626 439.268C60.9626 439.268 66.9626 441.168 75.5626 437.668C75.5626 437.668 62.1626 455.268 37.9626 458.568C37.9626 458.568 58.1626 463.468 73.0626 456.568C65.7626 461.168 54.9626 467.068 49.3626 465.668C49.3626 465.668 61.6626 470.568 68.3626 465.668C68.3626 465.668 52.0626 493.468 38.0626 490.368C38.0626 490.368 55.9626 501.368 69.9626 489.568C69.9626 489.568 63.3626 499.768 54.4626 499.468C54.4626 499.468 57.1626 501.968 64.8626 498.368C64.8626 498.368 59.4626 518.168 36.2626 518.668C36.2626 518.668 60.4626 527.768 74.1626 511.568C74.1626 511.568 53.8626 553.068 26.1626 551.968C26.1626 551.968 60.4626 561.268 72.9626 542.868C72.9626 542.868 64.8626 563.168 50.2626 562.368C50.2626 562.368 59.8626 565.568 68.0626 559.368C59.1626 568.068 36.5626 588.268 15.0626 590.168C15.0626 590.168 37.7626 598.668 46.0626 591.568C46.0626 591.568 39.1626 599.668 27.8626 604.768C27.8626 604.768 34.1626 607.868 42.1626 608.168C39.8626 610.268 36.4626 612.268 31.9626 613.068C31.9626 613.068 40.7626 614.168 47.8626 611.868C43.5626 615.468 38.6626 619.368 33.5626 622.968C29.1626 625.068 23.8626 627.368 19.4626 627.868C19.4626 627.868 21.5626 628.668 24.8626 628.868C17.0626 633.768 9.06259 637.768 1.96259 639.368C2.16259 639.368 30.3626 643.468 44.3626 638.368ZM141.463 650.668C141.263 650.368 141.163 650.168 141.163 650.168C141.263 650.268 141.363 650.468 141.463 650.668ZM54.6626 650.168C54.6626 650.168 54.5626 650.368 54.3626 650.668C54.4626 650.468 54.5626 650.268 54.6626 650.168Z" fill="url(#paint14_linear_0_1)"/>
<path d="M586.463 927.068V724.368C567.963 724.168 549.363 723.168 530.963 721.568C519.563 720.568 508.263 719.268 496.863 717.768C496.763 717.768 496.663 717.768 496.663 717.768C496.563 717.768 496.463 717.768 496.363 717.768C495.263 717.568 494.063 717.468 492.963 717.268C489.963 716.868 486.963 716.368 483.863 715.968C478.163 715.068 472.563 714.168 466.863 713.268C421.463 705.568 376.663 695.068 332.063 683.568C244.163 660.868 156.863 634.668 67.0626 620.568C-15.5374 607.568 -99.3374 604.768 -181.437 623.168C-205.437 628.568 -229.237 635.868 -252.237 645.068V927.268C-252.237 945.868 -237.137 960.868 -218.637 960.868H552.863C571.463 960.668 586.463 945.668 586.463 927.068Z" fill="url(#paint15_linear_0_1)"/>
<path d="M345.969 97.8632C345.969 114.307 339.437 130.077 327.81 141.704C316.182 153.331 300.412 159.863 283.969 159.863C267.526 159.863 251.756 153.331 240.128 141.704C228.501 130.077 221.969 114.307 221.969 97.8632C221.969 81.4197 228.501 65.6498 240.128 54.0225C251.756 42.3953 267.526 35.8632 283.969 35.8632C300.412 35.8632 316.182 42.3953 327.81 54.0225C339.437 65.6498 345.969 81.4197 345.969 97.8632Z" fill="#FFFCEB"/>
</g>
<defs>
<linearGradient id="paint0_linear_0_1" x1="170.78" y1="360.486" x2="170.78" y2="-478.265" gradientUnits="userSpaceOnUse">
<stop stop-color="#FFFCEB"/>
<stop offset="0.3098" stop-color="#F7DC85"/>
<stop offset="0.6561" stop-color="#EF7886"/>
<stop offset="1" stop-color="#E567AC"/>
</linearGradient>
<linearGradient id="paint1_linear_0_1" x1="283.955" y1="219.808" x2="283.955" y2="-205.907" gradientUnits="userSpaceOnUse">
<stop stop-color="#FFFCEB"/>
<stop offset="0.3098" stop-color="#F9E49D"/>
<stop offset="0.6561" stop-color="#F3989E"/>
<stop offset="1" stop-color="#EB8BBB"/>
</linearGradient>
<linearGradient id="paint2_linear_0_1" x1="283.955" y1="219.808" x2="283.955" y2="-205.907" gradientUnits="userSpaceOnUse">
<stop stop-color="#FFFCEB"/>
<stop offset="0.3098" stop-color="#FAEAB0"/>
<stop offset="0.6561" stop-color="#F6B0B0"/>
<stop offset="1" stop-color="#F0A6C6"/>
</linearGradient>
<linearGradient id="paint3_linear_0_1" x1="147.877" y1="619.539" x2="147.877" y2="394.836" gradientUnits="userSpaceOnUse">
<stop stop-color="#C1809A"/>
<stop offset="1" stop-color="#B2709E"/>
</linearGradient>
<linearGradient id="paint4_linear_0_1" x1="115.989" y1="537.653" x2="115.989" y2="254.509" gradientUnits="userSpaceOnUse">
<stop stop-color="#AD6CA1"/>
<stop offset="1" stop-color="#9B5D95"/>
</linearGradient>
<linearGradient id="paint5_linear_0_1" x1="244.817" y1="623.216" x2="244.817" y2="544.838" gradientUnits="userSpaceOnUse">
<stop stop-color="#AD6CA1"/>
<stop offset="1" stop-color="#9B5D95"/>
</linearGradient>
<linearGradient id="paint6_linear_0_1" x1="233.316" y1="453.718" x2="237.03" y2="480.952" gradientUnits="userSpaceOnUse">
<stop stop-color="#AD6CA1"/>
<stop offset="1" stop-color="#9B5D95"/>
</linearGradient>
<linearGradient id="paint7_linear_0_1" x1="305.035" y1="443.847" x2="305.035" y2="475.916" gradientUnits="userSpaceOnUse">
<stop stop-color="#AD6CA1"/>
<stop offset="1" stop-color="#9B5D95"/>
</linearGradient>
<linearGradient id="paint8_linear_0_1" x1="168.517" y1="470.379" x2="169.978" y2="513.475" gradientUnits="userSpaceOnUse">
<stop stop-color="#895396"/>
<stop offset="1" stop-color="#784784"/>
</linearGradient>
<linearGradient id="paint9_linear_0_1" x1="-32.1157" y1="367.552" x2="-32.1157" y2="426.714" gradientUnits="userSpaceOnUse">
<stop stop-color="#895396"/>
<stop offset="1" stop-color="#784784"/>
</linearGradient>
<linearGradient id="paint10_linear_0_1" x1="141.494" y1="454.732" x2="141.494" y2="483.949" gradientUnits="userSpaceOnUse">
<stop stop-color="#895396"/>
<stop offset="1" stop-color="#784784"/>
</linearGradient>
<linearGradient id="paint11_linear_0_1" x1="167.135" y1="752.535" x2="167.135" y2="620.483" gradientUnits="userSpaceOnUse">
<stop stop-color="#895396"/>
<stop offset="1" stop-color="#784784"/>
</linearGradient>
<linearGradient id="paint12_linear_0_1" x1="375.781" y1="418.957" x2="372.129" y2="466.435" gradientUnits="userSpaceOnUse">
<stop stop-color="#895396"/>
<stop offset="1" stop-color="#784784"/>
</linearGradient>
<linearGradient id="paint13_linear_0_1" x1="-93.6232" y1="392.58" x2="-90.3364" y2="481.324" gradientUnits="userSpaceOnUse">
<stop stop-color="#64467C"/>
<stop offset="1" stop-color="#593B6D"/>
</linearGradient>
<linearGradient id="paint14_linear_0_1" x1="97.9327" y1="430.385" x2="97.9327" y2="528.611" gradientUnits="userSpaceOnUse">
<stop stop-color="#64467C"/>
<stop offset="1" stop-color="#593B6D"/>
</linearGradient>
<linearGradient id="paint15_linear_0_1" x1="167.135" y1="1026.44" x2="167.135" y2="752.096" gradientUnits="userSpaceOnUse">
<stop stop-color="#64467C"/>
<stop offset="1" stop-color="#593B6D"/>
</linearGradient>
<clipPath id="clip0_0_1">
<rect width="360" height="800" fill="white"/>
</clipPath>
</defs>
</svg>
